<svg xmlns="http://www.w3.org/2000/svg" xmlns:xlink="http://www.w3.org/1999/xlink" width="500" zoomAndPan="magnify" viewBox="0 0 375 374.999991" height="500" preserveAspectRatio="xMidYMid meet" version="1.0"><defs><clipPath id="7c358b7ceb"><path d="M 58 51.003906 L 327 51.003906 L 327 330 L 58 330 Z M 58 51.003906 " clip-rule="nonzero"/></clipPath><clipPath id="29ff4ee92e"><path d="M 48 45.144531 L 317 45.144531 L 317 324 L 48 324 Z M 48 45.144531 " clip-rule="nonzero"/></clipPath></defs><rect x="-37.5" width="450" fill="#ffffff" y="-37.499999" height="449.999989" fill-opacity="1"/><rect x="-37.5" width="450" fill="#ffffff" y="-37.499999" height="449.999989" fill-opacity="1"/><g clip-path="url(#7c358b7ceb)"><path fill="#000000" d="M 199.898438 318.019531 C 203.113281 318.019531 205.71875 320.628906 205.71875 323.851562 C 205.71875 326.800781 203.53125 329.242188 200.6875 329.625 L 199.898438 329.679688 L 184.375 329.679688 C 181.160156 329.679688 178.554688 327.070312 178.554688 323.851562 C 178.554688 320.898438 180.742188 318.460938 183.585938 318.074219 L 184.375 318.019531 Z M 215.421875 302.472656 C 218.636719 302.472656 221.242188 305.082031 221.242188 308.304688 C 221.242188 311.253906 219.050781 313.695312 216.210938 314.078125 L 215.421875 314.132812 L 168.851562 314.132812 C 165.636719 314.132812 163.03125 311.523438 163.03125 308.304688 C 163.03125 305.351562 165.222656 302.914062 168.0625 302.527344 L 168.851562 302.472656 Z M 223.183594 286.925781 C 226.398438 286.925781 229.003906 289.535156 229.003906 292.757812 C 229.003906 295.707031 226.8125 298.148438 223.972656 298.535156 L 223.183594 298.585938 L 161.089844 298.585938 C 157.875 298.585938 155.269531 295.976562 155.269531 292.757812 C 155.269531 289.804688 157.460938 287.367188 160.300781 286.980469 L 161.089844 286.925781 Z M 192.136719 108.140625 C 233.929688 108.140625 267.8125 142.070312 267.8125 183.929688 C 267.8125 201.800781 257.171875 221.117188 236.339844 242.113281 C 232.039062 246.449219 229.464844 252.1875 229.0625 258.253906 L 229.007812 259.914062 L 229.003906 273.328125 C 229 278.355469 225.1875 282.488281 220.292969 282.988281 L 219.300781 283.039062 L 164.972656 283.039062 C 159.949219 283.039062 155.816406 279.214844 155.320312 274.316406 L 155.269531 273.324219 L 155.269531 259.921875 C 155.269531 253.25 152.632812 246.847656 147.9375 242.113281 C 127.101562 221.117188 116.460938 201.800781 116.460938 183.929688 C 116.460938 142.070312 150.34375 108.140625 192.136719 108.140625 Z M 122.492188 247.160156 C 124.578125 249.25 124.75 252.523438 123.015625 254.808594 L 122.492188 255.40625 L 106.027344 271.898438 C 103.753906 274.171875 100.070312 274.171875 97.796875 271.898438 C 95.710938 269.808594 95.539062 266.535156 97.273438 264.25 L 97.796875 263.652344 L 114.261719 247.160156 C 116.535156 244.886719 120.21875 244.886719 122.492188 247.160156 Z M 270.078125 246.640625 L 270.675781 247.160156 L 287.140625 263.652344 C 289.414062 265.929688 289.414062 269.621094 287.140625 271.898438 C 285.058594 273.984375 281.785156 274.15625 279.503906 272.417969 L 278.910156 271.898438 L 262.445312 255.40625 C 260.171875 253.128906 260.171875 249.4375 262.445312 247.160156 C 264.527344 245.074219 267.796875 244.902344 270.078125 246.640625 Z M 192.136719 119.800781 C 156.773438 119.800781 128.105469 148.511719 128.105469 183.929688 C 128.105469 198.144531 137.320312 214.875 156.191406 233.894531 C 162.601562 240.351562 166.382812 248.933594 166.859375 257.976562 L 166.910156 259.921875 L 166.902344 271.378906 L 217.363281 271.378906 L 217.367188 259.910156 C 217.367188 251.460938 220.261719 243.308594 225.5 236.785156 L 226.75 235.308594 L 228.082031 233.894531 C 246.957031 214.875 256.167969 198.140625 256.167969 183.929688 C 256.167969 148.511719 227.5 119.800781 192.136719 119.800781 Z M 87.6875 171.25 C 90.902344 171.25 93.507812 173.859375 93.507812 177.082031 C 93.507812 180.03125 91.320312 182.472656 88.476562 182.859375 L 87.6875 182.910156 L 64.402344 182.910156 C 61.1875 182.910156 58.582031 180.300781 58.582031 177.082031 C 58.582031 174.128906 60.769531 171.691406 63.613281 171.304688 L 64.402344 171.25 Z M 320.535156 171.25 C 323.75 171.25 326.355469 173.859375 326.355469 177.082031 C 326.355469 180.03125 324.164062 182.472656 321.324219 182.859375 L 320.535156 182.910156 L 297.25 182.910156 C 294.035156 182.910156 291.429688 180.300781 291.429688 177.082031 C 291.429688 174.128906 293.617188 171.691406 296.460938 171.304688 L 297.25 171.25 Z M 199.898438 131.460938 C 224.546875 131.460938 244.527344 151.472656 244.527344 176.15625 C 244.527344 179.375 241.921875 181.988281 238.707031 181.988281 C 235.492188 181.988281 232.886719 179.375 232.886719 176.15625 C 232.886719 157.910156 218.117188 143.121094 199.898438 143.121094 C 196.683594 143.121094 194.078125 140.507812 194.078125 137.289062 C 194.078125 134.070312 196.683594 131.460938 199.898438 131.460938 Z M 105.433594 81.742188 L 106.027344 82.265625 L 122.492188 98.753906 C 124.765625 101.03125 124.765625 104.722656 122.492188 107 C 120.410156 109.085938 117.136719 109.261719 114.855469 107.519531 L 114.261719 107 L 97.796875 90.507812 C 95.523438 88.234375 95.523438 84.542969 97.796875 82.265625 C 99.878906 80.175781 103.152344 80.003906 105.433594 81.742188 Z M 287.140625 82.265625 C 289.226562 84.351562 289.398438 87.628906 287.660156 89.914062 L 287.140625 90.507812 L 270.675781 107 C 268.402344 109.277344 264.71875 109.277344 262.445312 107 C 260.359375 104.914062 260.1875 101.636719 261.921875 99.351562 L 262.445312 98.753906 L 278.910156 82.265625 C 281.183594 79.988281 284.867188 79.988281 287.140625 82.265625 Z M 192.46875 50.765625 C 195.414062 50.765625 197.851562 52.957031 198.238281 55.804688 L 198.289062 56.59375 L 198.289062 79.914062 C 198.289062 83.132812 195.683594 85.742188 192.46875 85.742188 C 189.519531 85.742188 187.085938 83.550781 186.699219 80.703125 L 186.648438 79.914062 L 186.648438 56.59375 C 186.648438 53.375 189.253906 50.765625 192.46875 50.765625 Z M 192.46875 50.765625 " fill-opacity="1" fill-rule="nonzero"/></g><g clip-path="url(#29ff4ee92e)"><path fill="#ffde59" d="M 189.75 311.953125 C 192.964844 311.953125 195.574219 314.5625 195.574219 317.777344 C 195.574219 320.726562 193.382812 323.164062 190.539062 323.550781 L 189.75 323.605469 L 174.214844 323.605469 C 170.996094 323.605469 168.386719 320.996094 168.386719 317.777344 C 168.386719 314.828125 170.578125 312.390625 173.421875 312.007812 L 174.214844 311.953125 Z M 205.28125 296.417969 C 208.5 296.417969 211.109375 299.027344 211.109375 302.242188 C 211.109375 305.191406 208.917969 307.628906 206.074219 308.015625 L 205.28125 308.070312 L 158.679688 308.070312 C 155.460938 308.070312 152.851562 305.460938 152.851562 302.242188 C 152.851562 299.292969 155.042969 296.859375 157.886719 296.472656 L 158.679688 296.417969 Z M 213.050781 280.882812 C 216.265625 280.882812 218.875 283.492188 218.875 286.710938 C 218.875 289.660156 216.683594 292.097656 213.839844 292.480469 L 213.050781 292.535156 L 150.910156 292.535156 C 147.695312 292.535156 145.085938 289.925781 145.085938 286.710938 C 145.085938 283.761719 147.277344 281.324219 150.121094 280.9375 L 150.910156 280.882812 Z M 181.980469 102.234375 C 223.804688 102.234375 257.710938 136.140625 257.710938 177.964844 C 257.710938 195.824219 247.066406 215.125 226.21875 236.105469 C 221.910156 240.4375 219.335938 246.171875 218.933594 252.230469 L 218.878906 253.890625 L 218.875 267.296875 C 218.871094 272.320312 215.054688 276.449219 210.160156 276.949219 L 209.167969 277 L 154.792969 277 C 149.769531 277 145.632812 273.179688 145.136719 268.285156 L 145.085938 267.292969 L 145.085938 253.898438 C 145.085938 247.230469 142.445312 240.835938 137.746094 236.105469 C 116.898438 215.125 106.25 195.824219 106.25 177.964844 C 106.25 136.140625 140.15625 102.234375 181.980469 102.234375 Z M 112.285156 241.148438 C 114.371094 243.234375 114.542969 246.507812 112.804688 248.792969 L 112.285156 249.386719 L 95.808594 265.867188 C 93.53125 268.140625 89.84375 268.140625 87.570312 265.867188 C 85.484375 263.78125 85.308594 260.507812 87.046875 258.222656 L 87.570312 257.628906 L 104.046875 241.148438 C 106.320312 238.875 110.011719 238.875 112.285156 241.148438 Z M 259.980469 240.628906 L 260.578125 241.148438 L 277.054688 257.628906 C 279.332031 259.902344 279.332031 263.589844 277.054688 265.867188 C 274.96875 267.949219 271.695312 268.125 269.414062 266.386719 L 268.816406 265.867188 L 252.339844 249.386719 C 250.066406 247.113281 250.066406 243.425781 252.339844 241.148438 C 254.425781 239.066406 257.699219 238.890625 259.980469 240.628906 Z M 181.980469 113.886719 C 146.589844 113.886719 117.898438 142.574219 117.898438 177.964844 C 117.898438 192.167969 127.121094 208.886719 146.011719 227.894531 C 152.421875 234.34375 156.207031 242.917969 156.683594 251.957031 L 156.738281 253.898438 L 156.730469 265.347656 L 207.226562 265.347656 L 207.230469 253.886719 C 207.230469 245.445312 210.128906 237.300781 215.371094 230.78125 L 216.621094 229.304688 L 217.953125 227.890625 C 236.839844 208.886719 246.0625 192.167969 246.0625 177.964844 C 246.0625 142.574219 217.371094 113.886719 181.980469 113.886719 Z M 77.453125 165.296875 C 80.671875 165.296875 83.277344 167.90625 83.277344 171.121094 C 83.277344 174.070312 81.085938 176.507812 78.242188 176.894531 L 77.453125 176.949219 L 54.152344 176.949219 C 50.933594 176.949219 48.324219 174.339844 48.324219 171.121094 C 48.324219 168.171875 50.515625 165.734375 53.359375 165.351562 L 54.152344 165.296875 Z M 310.472656 165.296875 C 313.691406 165.296875 316.300781 167.90625 316.300781 171.121094 C 316.300781 174.070312 314.109375 176.507812 311.265625 176.894531 L 310.472656 176.949219 L 287.171875 176.949219 C 283.953125 176.949219 281.347656 174.339844 281.347656 171.121094 C 281.347656 168.171875 283.539062 165.734375 286.382812 165.351562 L 287.171875 165.296875 Z M 189.75 125.535156 C 214.414062 125.535156 234.410156 145.53125 234.410156 170.199219 C 234.410156 173.417969 231.800781 176.023438 228.585938 176.023438 C 225.367188 176.023438 222.757812 173.417969 222.757812 170.199219 C 222.757812 151.96875 207.980469 137.1875 189.75 137.1875 C 186.53125 137.1875 183.921875 134.578125 183.921875 131.363281 C 183.921875 128.144531 186.53125 125.535156 189.75 125.535156 Z M 95.210938 75.859375 L 95.808594 76.378906 L 112.285156 92.855469 C 114.558594 95.132812 114.558594 98.820312 112.285156 101.09375 C 110.199219 103.179688 106.925781 103.355469 104.644531 101.617188 L 104.046875 101.09375 L 87.570312 84.617188 C 85.292969 82.34375 85.292969 78.65625 87.570312 76.378906 C 89.65625 74.292969 92.929688 74.121094 95.210938 75.859375 Z M 277.054688 76.378906 C 279.140625 78.464844 279.316406 81.738281 277.578125 84.023438 L 277.054688 84.617188 L 260.578125 101.09375 C 258.304688 103.371094 254.613281 103.371094 252.339844 101.09375 C 250.253906 99.007812 250.082031 95.738281 251.820312 93.453125 L 252.339844 92.855469 L 268.816406 76.378906 C 271.09375 74.105469 274.78125 74.105469 277.054688 76.378906 Z M 182.3125 44.902344 C 185.261719 44.902344 187.699219 47.09375 188.085938 49.9375 L 188.136719 50.730469 L 188.136719 74.03125 C 188.136719 77.246094 185.53125 79.855469 182.3125 79.855469 C 179.363281 79.855469 176.925781 77.664062 176.539062 74.820312 L 176.488281 74.03125 L 176.488281 50.730469 C 176.488281 47.511719 179.09375 44.902344 182.3125 44.902344 Z M 182.3125 44.902344 " fill-opacity="1" fill-rule="nonzero"/></g></svg>