<svg xmlns="http://www.w3.org/2000/svg" xmlns:xlink="http://www.w3.org/1999/xlink" width="500" zoomAndPan="magnify" viewBox="0 0 375 374.999991" height="500" preserveAspectRatio="xMidYMid meet" version="1.0"><defs><clipPath id="8163d9f18a"><path d="M 106.007812 54.71875 L 268.757812 54.71875 L 268.757812 243 L 106.007812 243 Z M 106.007812 54.71875 " clip-rule="nonzero"/></clipPath><clipPath id="cd460a7a9b"><path d="M 152 262 L 211 262 L 211 320.21875 L 152 320.21875 Z M 152 262 " clip-rule="nonzero"/></clipPath><clipPath id="cc9ba57bc1"><path d="M 106.007812 185.792969 L 268.757812 185.792969 L 268.757812 243 L 106.007812 243 Z M 106.007812 185.792969 " clip-rule="nonzero"/></clipPath><clipPath id="bc55be4066"><path d="M 152 262 L 211 262 L 211 320.042969 L 152 320.042969 Z M 152 262 " clip-rule="nonzero"/></clipPath><clipPath id="f97ba073f9"><path d="M 152 279.777344 L 211 279.777344 L 211 321.027344 L 152 321.027344 Z M 152 279.777344 " clip-rule="nonzero"/></clipPath></defs><rect x="-37.5" width="450" fill="#ffffff" y="-37.499999" height="449.999989" fill-opacity="1"/><rect x="-37.5" width="450" fill="#ffffff" y="-37.499999" height="449.999989" fill-opacity="1"/><g clip-path="url(#8163d9f18a)"><path fill="#38b6ff" d="M 258.21875 85.523438 C 251.207031 75.539062 241.539062 67.890625 229.21875 62.632812 C 216.949219 57.375 202.769531 54.71875 186.730469 54.71875 C 172.121094 54.71875 158.792969 57.324219 146.734375 62.527344 C 134.679688 67.679688 124.960938 75.59375 117.628906 86.054688 C 111.789062 94.394531 108.175781 104.484375 106.6875 116.332031 C 106.050781 121.480469 110.140625 126.050781 115.347656 126.050781 L 147.636719 126.050781 C 151.78125 126.050781 155.285156 123.128906 156.1875 119.09375 C 156.984375 115.480469 158.3125 112.242188 160.171875 109.480469 C 163.148438 105.015625 166.972656 101.617188 171.644531 99.335938 C 176.320312 97.050781 181.257812 95.882812 186.515625 95.882812 C 191.933594 95.882812 196.820312 96.996094 201.335938 99.28125 C 205.796875 101.511719 209.355469 104.75 212.011719 108.949219 C 214.664062 113.144531 215.992188 117.976562 215.992188 123.554688 C 215.992188 128.8125 214.824219 133.539062 212.488281 137.734375 C 210.152344 141.929688 207.015625 145.808594 203.085938 149.257812 C 199.105469 152.765625 194.695312 156.058594 189.703125 159.296875 C 183.011719 163.492188 177.273438 168.167969 172.546875 173.320312 C 167.769531 178.472656 164.210938 185.214844 161.714844 193.609375 C 159.269531 202 157.996094 213.207031 157.941406 227.28125 L 157.941406 234.292969 C 157.941406 239.070312 161.820312 243 166.652344 243 L 195.066406 243 C 199.847656 243 203.777344 239.125 203.777344 234.292969 L 203.777344 227.28125 C 203.882812 219.367188 204.894531 212.726562 206.859375 207.363281 C 208.824219 202 211.851562 197.21875 215.886719 193.128906 C 219.976562 189.039062 225.179688 185.109375 231.554688 181.285156 C 239.148438 176.769531 245.683594 171.726562 251.257812 166.097656 C 256.78125 160.519531 261.136719 154.039062 264.273438 146.761719 C 267.351562 139.488281 268.945312 131.09375 268.945312 121.695312 C 268.785156 107.566406 265.226562 95.511719 258.21875 85.523438 Z M 258.21875 85.523438 " fill-opacity="1" fill-rule="nonzero"/></g><g clip-path="url(#cd460a7a9b)"><path fill="#38b6ff" d="M 181.734375 262.546875 C 173.664062 262.546875 166.8125 265.363281 161.128906 270.992188 C 155.445312 276.621094 152.632812 283.417969 152.738281 291.28125 C 152.632812 299.246094 155.445312 306.097656 161.128906 311.78125 C 166.8125 317.464844 173.664062 320.277344 181.734375 320.277344 C 186.886719 320.277344 191.667969 318.953125 195.96875 316.347656 C 200.324219 313.691406 203.832031 310.242188 206.539062 305.832031 C 209.246094 301.425781 210.628906 296.589844 210.683594 291.28125 C 210.574219 283.367188 207.65625 276.621094 201.867188 270.992188 C 196.128906 265.363281 189.382812 262.546875 181.734375 262.546875 Z M 181.734375 262.546875 " fill-opacity="1" fill-rule="nonzero"/></g><g clip-path="url(#cc9ba57bc1)"><path fill="#004aad" d="M 258.21875 85.523438 C 251.207031 75.539062 241.539062 67.890625 229.21875 62.632812 C 216.949219 57.375 202.769531 54.71875 186.730469 54.71875 C 172.121094 54.71875 158.792969 57.324219 146.734375 62.527344 C 134.679688 67.679688 124.960938 75.59375 117.628906 86.054688 C 111.789062 94.394531 108.175781 104.484375 106.6875 116.328125 C 106.050781 121.480469 110.140625 126.050781 115.347656 126.050781 L 147.636719 126.050781 C 151.78125 126.050781 155.285156 123.128906 156.1875 119.09375 C 156.984375 115.480469 158.3125 112.242188 160.171875 109.480469 C 163.148438 105.015625 166.972656 101.617188 171.644531 99.335938 C 176.320312 97.050781 181.257812 95.882812 186.515625 95.882812 C 191.933594 95.882812 196.820312 96.996094 201.335938 99.28125 C 205.796875 101.511719 209.355469 104.75 212.011719 108.949219 C 214.664062 113.144531 215.992188 117.976562 215.992188 123.554688 C 215.992188 128.8125 214.824219 133.539062 212.488281 137.734375 C 210.152344 141.929688 207.015625 145.808594 203.085938 149.257812 C 199.105469 152.765625 194.695312 156.058594 189.703125 159.296875 C 183.011719 163.492188 177.273438 168.167969 172.546875 173.320312 C 167.769531 178.46875 164.210938 185.214844 161.714844 193.609375 C 159.269531 202 157.996094 213.207031 157.941406 227.28125 L 157.941406 234.292969 C 157.941406 239.070312 161.820312 243 166.652344 243 L 195.066406 243 C 199.847656 243 203.777344 239.125 203.777344 234.292969 L 203.777344 227.28125 C 203.882812 219.367188 204.894531 212.726562 206.859375 207.363281 C 208.824219 202 211.851562 197.21875 215.886719 193.128906 C 219.976562 189.039062 225.179688 185.109375 231.554688 181.285156 C 239.148438 176.769531 245.683594 171.726562 251.257812 166.09375 C 256.78125 160.519531 261.136719 154.039062 264.273438 146.761719 C 267.351562 139.488281 268.945312 131.09375 268.945312 121.695312 C 268.785156 107.566406 265.226562 95.511719 258.21875 85.523438 Z M 258.21875 85.523438 " fill-opacity="1" fill-rule="nonzero"/></g><g clip-path="url(#bc55be4066)"><path fill="#004aad" d="M 181.734375 262.546875 C 173.664062 262.546875 166.8125 265.363281 161.128906 270.992188 C 155.445312 276.621094 152.632812 283.417969 152.738281 291.28125 C 152.632812 299.246094 155.445312 306.097656 161.128906 311.78125 C 166.8125 317.464844 173.664062 320.277344 181.734375 320.277344 C 186.886719 320.277344 191.667969 318.953125 195.96875 316.347656 C 200.324219 313.691406 203.832031 310.242188 206.539062 305.832031 C 209.246094 301.425781 210.628906 296.589844 210.683594 291.28125 C 210.574219 283.367188 207.65625 276.621094 201.867188 270.992188 C 196.128906 265.363281 189.382812 262.546875 181.734375 262.546875 Z M 181.734375 262.546875 " fill-opacity="1" fill-rule="nonzero"/></g><g clip-path="url(#f97ba073f9)"><path fill="#100f0d" d="M 181.734375 263.503906 C 173.664062 263.503906 166.8125 266.316406 161.128906 271.949219 C 155.445312 277.578125 152.632812 284.375 152.738281 292.234375 C 152.632812 300.203125 155.445312 307.054688 161.128906 312.738281 C 166.8125 318.421875 173.664062 321.234375 181.734375 321.234375 C 186.886719 321.234375 191.667969 319.90625 195.96875 317.304688 C 200.324219 314.648438 203.832031 311.195312 206.539062 306.789062 C 209.246094 302.378906 210.628906 297.546875 210.683594 292.234375 C 210.574219 284.324219 207.65625 277.578125 201.867188 271.949219 C 196.128906 266.316406 189.382812 263.503906 181.734375 263.503906 Z M 181.734375 263.503906 " fill-opacity="1" fill-rule="nonzero"/></g></svg>