<svg xmlns="http://www.w3.org/2000/svg" xmlns:xlink="http://www.w3.org/1999/xlink" width="500" zoomAndPan="magnify" viewBox="0 0 375 374.999991" height="500" preserveAspectRatio="xMidYMid meet" version="1.0"><defs><clipPath id="41bb68244f"><path d="M 120 142 L 154 142 L 154 213 L 120 213 Z M 120 142 " clip-rule="nonzero"/></clipPath><clipPath id="1e9bbe8600"><path d="M 108.355469 134.660156 L 153.035156 140.023438 L 144.273438 213 L 99.59375 207.636719 Z M 108.355469 134.660156 " clip-rule="nonzero"/></clipPath><clipPath id="eff7a3fe6f"><path d="M 108.355469 134.660156 L 219.308594 147.984375 L 205.984375 258.9375 L 95.03125 245.613281 Z M 108.355469 134.660156 " clip-rule="nonzero"/></clipPath><clipPath id="50ec444122"><path d="M 102 185 L 111 185 L 111 194 L 102 194 Z M 102 185 " clip-rule="nonzero"/></clipPath><clipPath id="72fc530e05"><path d="M 108.355469 134.660156 L 153.035156 140.023438 L 144.273438 213 L 99.59375 207.636719 Z M 108.355469 134.660156 " clip-rule="nonzero"/></clipPath><clipPath id="3847470dbb"><path d="M 108.355469 134.660156 L 219.308594 147.984375 L 205.984375 258.9375 L 95.03125 245.613281 Z M 108.355469 134.660156 " clip-rule="nonzero"/></clipPath><clipPath id="06dede5544"><path d="M 101 202 L 111 202 L 111 211 L 101 211 Z M 101 202 " clip-rule="nonzero"/></clipPath><clipPath id="3d76bdcb69"><path d="M 108.355469 134.660156 L 153.035156 140.023438 L 144.273438 213 L 99.59375 207.636719 Z M 108.355469 134.660156 " clip-rule="nonzero"/></clipPath><clipPath id="327ea5e566"><path d="M 108.355469 134.660156 L 219.308594 147.984375 L 205.984375 258.9375 L 95.03125 245.613281 Z M 108.355469 134.660156 " clip-rule="nonzero"/></clipPath><clipPath id="e543b04d82"><path d="M 107 170 L 117 170 L 117 179 L 107 179 Z M 107 170 " clip-rule="nonzero"/></clipPath><clipPath id="b626fc05b7"><path d="M 108.355469 134.660156 L 153.035156 140.023438 L 144.273438 213 L 99.59375 207.636719 Z M 108.355469 134.660156 " clip-rule="nonzero"/></clipPath><clipPath id="f4fdb0865a"><path d="M 108.355469 134.660156 L 219.308594 147.984375 L 205.984375 258.9375 L 95.03125 245.613281 Z M 108.355469 134.660156 " clip-rule="nonzero"/></clipPath><clipPath id="eb1981bff4"><path d="M 60 31 L 355 31 L 355 353 L 60 353 Z M 60 31 " clip-rule="nonzero"/></clipPath><clipPath id="39a2c0d3ea"><path d="M -33.835938 79.734375 L 292.210938 -41.917969 L 408.617188 270.070312 L 82.574219 391.722656 Z M -33.835938 79.734375 " clip-rule="nonzero"/></clipPath><clipPath id="8522821750"><path d="M -33.835938 79.734375 L 292.210938 -41.917969 L 408.617188 270.070312 L 82.574219 391.722656 Z M -33.835938 79.734375 " clip-rule="nonzero"/></clipPath><clipPath id="5059868f4d"><path d="M -33.835938 79.734375 L 292.210938 -41.917969 L 408.617188 270.070312 L 82.574219 391.722656 Z M -33.835938 79.734375 " clip-rule="nonzero"/></clipPath><clipPath id="ded1b17b08"><path d="M 250 139 L 283 139 L 283 167 L 250 167 Z M 250 139 " clip-rule="nonzero"/></clipPath><clipPath id="92d84f0261"><path d="M -33.835938 79.734375 L 292.210938 -41.917969 L 408.617188 270.070312 L 82.574219 391.722656 Z M -33.835938 79.734375 " clip-rule="nonzero"/></clipPath><clipPath id="010575cfc2"><path d="M -33.835938 79.734375 L 292.210938 -41.917969 L 408.617188 270.070312 L 82.574219 391.722656 Z M -33.835938 79.734375 " clip-rule="nonzero"/></clipPath><clipPath id="4f54534404"><path d="M -33.835938 79.734375 L 292.210938 -41.917969 L 408.617188 270.070312 L 82.574219 391.722656 Z M -33.835938 79.734375 " clip-rule="nonzero"/></clipPath><clipPath id="9af62afcde"><path d="M 210 110 L 243 110 L 243 137 L 210 137 Z M 210 110 " clip-rule="nonzero"/></clipPath><clipPath id="cd427dbf1c"><path d="M -33.835938 79.734375 L 292.210938 -41.917969 L 408.617188 270.070312 L 82.574219 391.722656 Z M -33.835938 79.734375 " clip-rule="nonzero"/></clipPath><clipPath id="a7940cc724"><path d="M -33.835938 79.734375 L 292.210938 -41.917969 L 408.617188 270.070312 L 82.574219 391.722656 Z M -33.835938 79.734375 " clip-rule="nonzero"/></clipPath><clipPath id="23330829b4"><path d="M -33.835938 79.734375 L 292.210938 -41.917969 L 408.617188 270.070312 L 82.574219 391.722656 Z M -33.835938 79.734375 " clip-rule="nonzero"/></clipPath><clipPath id="6ba1ca7bde"><path d="M 65 28 L 185 28 L 185 224 L 65 224 Z M 65 28 " clip-rule="nonzero"/></clipPath><clipPath id="4c4e5f5d0d"><path d="M -33.835938 79.734375 L 292.210938 -41.917969 L 408.617188 270.070312 L 82.574219 391.722656 Z M -33.835938 79.734375 " clip-rule="nonzero"/></clipPath><clipPath id="e89fa9d536"><path d="M -33.835938 79.734375 L 292.210938 -41.917969 L 408.617188 270.070312 L 82.574219 391.722656 Z M -33.835938 79.734375 " clip-rule="nonzero"/></clipPath><clipPath id="b990d2f722"><path d="M -33.835938 79.734375 L 292.210938 -41.917969 L 408.617188 270.070312 L 82.574219 391.722656 Z M -33.835938 79.734375 " clip-rule="nonzero"/></clipPath><clipPath id="5f0b49bf9c"><path d="M 50 270 L 115 270 L 115 318 L 50 318 Z M 50 270 " clip-rule="nonzero"/></clipPath><clipPath id="1259b4093f"><path d="M -33.835938 79.734375 L 292.210938 -41.917969 L 408.617188 270.070312 L 82.574219 391.722656 Z M -33.835938 79.734375 " clip-rule="nonzero"/></clipPath><clipPath id="acc9d8464c"><path d="M -33.835938 79.734375 L 292.210938 -41.917969 L 408.617188 270.070312 L 82.574219 391.722656 Z M -33.835938 79.734375 " clip-rule="nonzero"/></clipPath><clipPath id="53d2447b71"><path d="M -33.835938 79.734375 L 292.210938 -41.917969 L 408.617188 270.070312 L 82.574219 391.722656 Z M -33.835938 79.734375 " clip-rule="nonzero"/></clipPath><clipPath id="32ca214449"><path d="M 121 103 L 146 103 L 146 119 L 121 119 Z M 121 103 " clip-rule="nonzero"/></clipPath><clipPath id="45ed53abe2"><path d="M -33.835938 79.734375 L 292.210938 -41.917969 L 408.617188 270.070312 L 82.574219 391.722656 Z M -33.835938 79.734375 " clip-rule="nonzero"/></clipPath><clipPath id="2cd1212423"><path d="M -33.835938 79.734375 L 292.210938 -41.917969 L 408.617188 270.070312 L 82.574219 391.722656 Z M -33.835938 79.734375 " clip-rule="nonzero"/></clipPath><clipPath id="a5e63425e4"><path d="M -33.835938 79.734375 L 292.210938 -41.917969 L 408.617188 270.070312 L 82.574219 391.722656 Z M -33.835938 79.734375 " clip-rule="nonzero"/></clipPath><clipPath id="34107e9b4b"><path d="M 161 143 L 248 143 L 248 261 L 161 261 Z M 161 143 " clip-rule="nonzero"/></clipPath><clipPath id="ea46d978e4"><path d="M 185.347656 127.417969 L 275.117188 193.972656 L 208.558594 283.742188 L 118.792969 217.183594 Z M 185.347656 127.417969 " clip-rule="nonzero"/></clipPath><clipPath id="0acc7501f8"><path d="M 185.347656 127.417969 L 275.117188 193.972656 L 208.558594 283.742188 L 118.792969 217.183594 Z M 185.347656 127.417969 " clip-rule="nonzero"/></clipPath><clipPath id="56e4ef31be"><path d="M 152 170 L 161 170 L 161 179 L 152 179 Z M 152 170 " clip-rule="nonzero"/></clipPath><clipPath id="2bd1f8fbec"><path d="M 185.347656 127.417969 L 275.117188 193.972656 L 208.558594 283.742188 L 118.792969 217.183594 Z M 185.347656 127.417969 " clip-rule="nonzero"/></clipPath><clipPath id="5929265996"><path d="M 185.347656 127.417969 L 275.117188 193.972656 L 208.558594 283.742188 L 118.792969 217.183594 Z M 185.347656 127.417969 " clip-rule="nonzero"/></clipPath><clipPath id="0ee68ed03e"><path d="M 143 184 L 152 184 L 152 193 L 143 193 Z M 143 184 " clip-rule="nonzero"/></clipPath><clipPath id="9107beadce"><path d="M 185.347656 127.417969 L 275.117188 193.972656 L 208.558594 283.742188 L 118.792969 217.183594 Z M 185.347656 127.417969 " clip-rule="nonzero"/></clipPath><clipPath id="955526382a"><path d="M 185.347656 127.417969 L 275.117188 193.972656 L 208.558594 283.742188 L 118.792969 217.183594 Z M 185.347656 127.417969 " clip-rule="nonzero"/></clipPath><clipPath id="a14f19f80d"><path d="M 164 159 L 174 159 L 174 168 L 164 168 Z M 164 159 " clip-rule="nonzero"/></clipPath><clipPath id="6811c4620e"><path d="M 185.347656 127.417969 L 275.117188 193.972656 L 208.558594 283.742188 L 118.792969 217.183594 Z M 185.347656 127.417969 " clip-rule="nonzero"/></clipPath><clipPath id="c8b07705dc"><path d="M 185.347656 127.417969 L 275.117188 193.972656 L 208.558594 283.742188 L 118.792969 217.183594 Z M 185.347656 127.417969 " clip-rule="nonzero"/></clipPath><clipPath id="72f8b1c9fd"><path d="M 149 231 L 158 231 L 158 240 L 149 240 Z M 149 231 " clip-rule="nonzero"/></clipPath><clipPath id="333fe46b11"><path d="M 185.347656 127.417969 L 275.117188 193.972656 L 208.558594 283.742188 L 118.792969 217.183594 Z M 185.347656 127.417969 " clip-rule="nonzero"/></clipPath><clipPath id="d793111730"><path d="M 185.347656 127.417969 L 275.117188 193.972656 L 208.558594 283.742188 L 118.792969 217.183594 Z M 185.347656 127.417969 " clip-rule="nonzero"/></clipPath><clipPath id="3c5ac1805c"><path d="M 140 200 L 149 200 L 149 209 L 140 209 Z M 140 200 " clip-rule="nonzero"/></clipPath><clipPath id="d8fec730e3"><path d="M 185.347656 127.417969 L 275.117188 193.972656 L 208.558594 283.742188 L 118.792969 217.183594 Z M 185.347656 127.417969 " clip-rule="nonzero"/></clipPath><clipPath id="b86f7f08a0"><path d="M 185.347656 127.417969 L 275.117188 193.972656 L 208.558594 283.742188 L 118.792969 217.183594 Z M 185.347656 127.417969 " clip-rule="nonzero"/></clipPath><clipPath id="117a02fc24"><path d="M 142 216 L 151 216 L 151 225 L 142 225 Z M 142 216 " clip-rule="nonzero"/></clipPath><clipPath id="2db354680c"><path d="M 185.347656 127.417969 L 275.117188 193.972656 L 208.558594 283.742188 L 118.792969 217.183594 Z M 185.347656 127.417969 " clip-rule="nonzero"/></clipPath><clipPath id="a97335d1a4"><path d="M 185.347656 127.417969 L 275.117188 193.972656 L 208.558594 283.742188 L 118.792969 217.183594 Z M 185.347656 127.417969 " clip-rule="nonzero"/></clipPath><clipPath id="d5ff1ed018"><path d="M 187 182 L 211 182 L 211 234 L 187 234 Z M 187 182 " clip-rule="nonzero"/></clipPath><clipPath id="a5da53b4f8"><path d="M 185.347656 127.417969 L 275.117188 193.972656 L 208.558594 283.742188 L 118.792969 217.183594 Z M 185.347656 127.417969 " clip-rule="nonzero"/></clipPath><clipPath id="1238fe3c09"><path d="M 185.347656 127.417969 L 275.117188 193.972656 L 208.558594 283.742188 L 118.792969 217.183594 Z M 185.347656 127.417969 " clip-rule="nonzero"/></clipPath></defs><rect x="-37.5" width="450" fill="#ffffff" y="-37.499999" height="449.999989" fill-opacity="1"/><rect x="-37.5" width="450" fill="#ffffff" y="-37.499999" height="449.999989" fill-opacity="1"/><g clip-path="url(#41bb68244f)"><g clip-path="url(#1e9bbe8600)"><g clip-path="url(#eff7a3fe6f)"><path fill="#004aad" d="M 197.003906 166.054688 C 196.070312 164.867188 195.085938 163.726562 194.058594 162.625 C 193.027344 161.523438 191.953125 160.46875 190.835938 159.457031 C 189.714844 158.445312 188.558594 157.484375 187.355469 156.570312 C 186.15625 155.660156 184.921875 154.796875 183.648438 153.988281 C 182.375 153.179688 181.070312 152.425781 179.734375 151.730469 C 178.398438 151.03125 177.035156 150.390625 175.644531 149.804688 C 174.253906 149.222656 172.84375 148.699219 171.410156 148.234375 C 169.972656 147.769531 168.523438 147.367188 167.054688 147.023438 C 165.585938 146.683594 164.105469 146.402344 162.613281 146.1875 C 161.121094 145.96875 159.621094 145.816406 158.117188 145.726562 C 156.613281 145.632812 155.105469 145.605469 153.597656 145.644531 C 152.09375 145.679688 150.589844 145.78125 149.089844 145.941406 C 147.589844 146.105469 146.101562 146.332031 144.621094 146.621094 C 143.140625 146.910156 141.675781 147.261719 140.226562 147.671875 C 138.777344 148.085938 137.347656 148.558594 135.9375 149.09375 C 134.527344 149.625 133.140625 150.21875 131.78125 150.867188 L 132.90625 147.4375 C 132.984375 147.183594 133.039062 146.921875 133.070312 146.65625 C 133.097656 146.390625 133.101562 146.121094 133.078125 145.855469 C 133.054688 145.585938 133.007812 145.324219 132.933594 145.066406 C 132.859375 144.808594 132.757812 144.5625 132.636719 144.324219 C 132.515625 144.085938 132.371094 143.859375 132.203125 143.652344 C 132.035156 143.441406 131.851562 143.25 131.648438 143.074219 C 131.445312 142.902344 131.226562 142.746094 130.992188 142.617188 C 130.757812 142.484375 130.511719 142.378906 130.257812 142.292969 C 130.003906 142.210938 129.742188 142.152344 129.476562 142.121094 C 129.210938 142.085938 128.945312 142.082031 128.675781 142.097656 C 128.410156 142.117188 128.148438 142.164062 127.886719 142.234375 C 127.628906 142.304688 127.378906 142.398438 127.140625 142.519531 C 126.898438 142.640625 126.671875 142.78125 126.460938 142.945312 C 126.25 143.109375 126.054688 143.289062 125.878906 143.492188 C 125.699219 143.691406 125.546875 143.910156 125.410156 144.140625 C 125.277344 144.375 125.164062 144.617188 125.078125 144.871094 L 120.453125 158.980469 C 120.140625 160.070312 120.242188 161.121094 120.746094 162.136719 C 121.265625 163.113281 122.042969 163.796875 123.082031 164.175781 L 137.191406 168.804688 C 137.707031 168.964844 138.234375 169.023438 138.773438 168.976562 C 139.3125 168.929688 139.824219 168.78125 140.304688 168.535156 C 140.785156 168.285156 141.203125 167.957031 141.554688 167.546875 C 141.90625 167.132812 142.164062 166.671875 142.332031 166.15625 C 142.503906 165.640625 142.566406 165.117188 142.527344 164.574219 C 142.488281 164.035156 142.347656 163.523438 142.109375 163.039062 C 141.867188 162.554688 141.542969 162.132812 141.136719 161.777344 C 140.730469 161.421875 140.269531 161.152344 139.757812 160.976562 L 133.855469 159.042969 C 134.632812 158.636719 135.421875 158.25 136.222656 157.890625 C 137.019531 157.527344 137.832031 157.1875 138.648438 156.871094 C 139.46875 156.558594 140.296875 156.265625 141.132812 156 C 141.96875 155.734375 142.8125 155.492188 143.664062 155.273438 C 144.511719 155.054688 145.371094 154.863281 146.230469 154.695312 C 147.09375 154.527344 147.957031 154.382812 148.828125 154.265625 C 149.699219 154.148438 150.570312 154.054688 151.445312 153.988281 C 152.320312 153.921875 153.199219 153.878906 154.074219 153.863281 C 154.953125 153.847656 155.832031 153.855469 156.707031 153.890625 C 157.585938 153.925781 158.460938 153.988281 159.332031 154.070312 C 160.207031 154.15625 161.078125 154.269531 161.945312 154.40625 C 162.8125 154.542969 163.675781 154.703125 164.53125 154.890625 C 165.390625 155.078125 166.242188 155.289062 167.085938 155.523438 C 167.933594 155.761719 168.769531 156.019531 169.601562 156.304688 C 170.429688 156.589844 171.253906 156.898438 172.066406 157.230469 C 172.878906 157.5625 173.679688 157.921875 174.472656 158.300781 C 175.261719 158.679688 176.042969 159.082031 176.8125 159.503906 C 177.578125 159.929688 178.335938 160.375 179.078125 160.84375 C 179.820312 161.3125 180.546875 161.804688 181.261719 162.3125 C 181.976562 162.824219 182.675781 163.355469 183.355469 163.90625 C 184.039062 164.457031 184.707031 165.03125 185.355469 165.621094 C 186.007812 166.210938 186.636719 166.820312 187.253906 167.445312 C 187.867188 168.074219 188.464844 168.714844 189.039062 169.378906 C 189.617188 170.039062 190.175781 170.71875 190.710938 171.410156 C 191.25 172.105469 191.765625 172.816406 192.261719 173.539062 C 192.757812 174.261719 193.234375 175 193.6875 175.753906 C 194.140625 176.503906 194.570312 177.269531 194.980469 178.042969 C 195.390625 178.820312 195.777344 179.609375 196.140625 180.410156 C 196.503906 181.207031 196.84375 182.015625 197.160156 182.835938 C 197.472656 183.65625 197.765625 184.480469 198.035156 185.316406 C 198.300781 186.152344 198.546875 186.996094 198.765625 187.847656 C 198.984375 188.699219 199.179688 189.554688 199.347656 190.414062 C 199.515625 191.277344 199.660156 192.140625 199.78125 193.011719 C 199.898438 193.882812 199.992188 194.753906 200.058594 195.628906 C 200.128906 196.503906 200.171875 197.378906 200.1875 198.257812 C 200.207031 199.136719 200.199219 200.011719 200.164062 200.890625 C 200.128906 201.765625 200.070312 202.644531 199.984375 203.515625 C 199.902344 204.390625 199.792969 205.261719 199.65625 206.128906 C 199.519531 206.996094 199.359375 207.859375 199.175781 208.714844 C 198.988281 209.574219 198.777344 210.425781 198.542969 211.273438 C 198.308594 212.117188 198.050781 212.957031 197.765625 213.785156 C 197.480469 214.617188 197.175781 215.4375 196.84375 216.253906 C 196.511719 217.066406 196.15625 217.867188 195.777344 218.660156 C 195.402344 219.453125 195 220.230469 194.574219 221 C 194.152344 221.769531 193.707031 222.527344 193.238281 223.269531 C 192.773438 224.011719 192.28125 224.742188 191.773438 225.457031 C 191.261719 226.171875 190.734375 226.867188 190.183594 227.554688 C 189.632812 228.238281 189.0625 228.902344 188.472656 229.554688 C 187.882812 230.203125 187.277344 230.839844 186.648438 231.453125 C 186.023438 232.070312 185.378906 232.664062 184.71875 233.242188 C 184.058594 233.820312 183.382812 234.378906 182.6875 234.917969 C 181.996094 235.457031 181.285156 235.972656 180.5625 236.472656 C 179.839844 236.96875 179.101562 237.445312 178.351562 237.898438 C 177.601562 238.351562 176.835938 238.785156 176.058594 239.195312 C 175.285156 239.605469 174.496094 239.992188 173.699219 240.355469 C 172.898438 240.71875 172.089844 241.0625 171.273438 241.378906 C 170.453125 241.695312 169.625 241.988281 168.789062 242.257812 C 167.957031 242.527344 167.113281 242.773438 166.261719 242.992188 C 165.414062 243.210938 164.558594 243.40625 163.695312 243.578125 C 162.835938 243.75 161.96875 243.894531 161.101562 244.011719 C 160.230469 244.132812 159.359375 244.226562 158.484375 244.296875 C 157.609375 244.367188 156.730469 244.410156 155.855469 244.429688 C 154.976562 244.449219 154.097656 244.441406 153.222656 244.40625 C 152.34375 244.375 151.46875 244.316406 150.59375 244.234375 C 150.324219 244.207031 150.054688 244.207031 149.789062 244.234375 C 149.519531 244.261719 149.253906 244.316406 148.996094 244.394531 C 148.738281 244.476562 148.488281 244.578125 148.25 244.707031 C 148.011719 244.835938 147.789062 244.988281 147.582031 245.160156 C 147.371094 245.332031 147.183594 245.523438 147.011719 245.730469 C 146.839844 245.941406 146.691406 246.164062 146.566406 246.402344 C 146.4375 246.644531 146.335938 246.890625 146.257812 247.152344 C 146.179688 247.410156 146.128906 247.675781 146.105469 247.945312 C 146.078125 248.214844 146.078125 248.480469 146.105469 248.75 C 146.132812 249.019531 146.1875 249.285156 146.265625 249.542969 C 146.34375 249.800781 146.449219 250.050781 146.578125 250.289062 C 146.707031 250.527344 146.855469 250.75 147.027344 250.957031 C 147.199219 251.167969 147.390625 251.355469 147.601562 251.527344 C 147.808594 251.699219 148.035156 251.847656 148.273438 251.972656 C 148.511719 252.101562 148.761719 252.203125 149.019531 252.28125 C 149.277344 252.359375 149.542969 252.410156 149.8125 252.4375 C 152.40625 252.683594 155.003906 252.742188 157.605469 252.609375 C 160.210938 252.476562 162.789062 252.15625 165.34375 251.648438 C 167.898438 251.140625 170.40625 250.449219 172.859375 249.574219 C 175.3125 248.699219 177.691406 247.652344 179.992188 246.429688 C 182.296875 245.207031 184.496094 243.824219 186.597656 242.28125 C 188.695312 240.738281 190.671875 239.054688 192.527344 237.222656 C 194.378906 235.390625 196.089844 233.433594 197.660156 231.351562 C 199.226562 229.273438 200.636719 227.089844 201.882812 224.800781 C 203.132812 222.515625 204.210938 220.148438 205.113281 217.707031 C 206.019531 215.261719 206.738281 212.765625 207.277344 210.214844 C 207.820312 207.667969 208.171875 205.089844 208.332031 202.492188 C 208.496094 199.890625 208.472656 197.292969 208.253906 194.695312 C 208.039062 192.097656 207.636719 189.53125 207.046875 186.992188 C 206.457031 184.453125 205.683594 181.972656 204.730469 179.546875 C 203.777344 177.121094 202.652344 174.78125 201.359375 172.519531 C 200.066406 170.257812 198.613281 168.101562 197.003906 166.054688 Z M 197.003906 166.054688 " fill-opacity="1" fill-rule="nonzero"/></g></g></g><g clip-path="url(#50ec444122)"><g clip-path="url(#72fc530e05)"><g clip-path="url(#3847470dbb)"><path fill="#004aad" d="M 105.886719 193.835938 C 106.414062 193.898438 106.933594 193.863281 107.449219 193.722656 C 107.960938 193.585938 108.429688 193.355469 108.855469 193.035156 C 109.277344 192.714844 109.628906 192.324219 109.902344 191.867188 C 110.171875 191.410156 110.351562 190.921875 110.433594 190.394531 C 110.515625 189.871094 110.496094 189.347656 110.375 188.828125 C 110.253906 188.3125 110.039062 187.835938 109.734375 187.398438 C 109.425781 186.964844 109.050781 186.605469 108.605469 186.316406 C 108.15625 186.027344 107.671875 185.832031 107.148438 185.734375 C 106.882812 185.683594 106.617188 185.65625 106.347656 185.660156 C 106.078125 185.660156 105.8125 185.6875 105.546875 185.742188 C 105.28125 185.796875 105.027344 185.878906 104.777344 185.980469 C 104.527344 186.085938 104.292969 186.214844 104.070312 186.367188 C 103.847656 186.519531 103.640625 186.691406 103.449219 186.882812 C 103.261719 187.074219 103.09375 187.28125 102.945312 187.507812 C 102.796875 187.734375 102.671875 187.96875 102.570312 188.21875 C 102.46875 188.46875 102.390625 188.726562 102.339844 188.992188 C 102.289062 189.257812 102.265625 189.523438 102.265625 189.792969 C 102.269531 190.0625 102.296875 190.332031 102.351562 190.59375 C 102.40625 190.859375 102.484375 191.117188 102.589844 191.363281 C 102.695312 191.613281 102.824219 191.847656 102.972656 192.074219 C 103.125 192.296875 103.296875 192.503906 103.488281 192.691406 C 103.679688 192.882812 103.890625 193.050781 104.113281 193.199219 C 104.339844 193.347656 104.578125 193.472656 104.828125 193.574219 C 105.078125 193.675781 105.335938 193.75 105.601562 193.800781 Z M 105.886719 193.835938 " fill-opacity="1" fill-rule="nonzero"/></g></g></g><g clip-path="url(#06dede5544)"><g clip-path="url(#3d76bdcb69)"><g clip-path="url(#327ea5e566)"><path fill="#004aad" d="M 110.035156 205.578125 C 109.996094 205.308594 109.933594 205.046875 109.84375 204.792969 C 109.757812 204.539062 109.644531 204.292969 109.507812 204.0625 C 109.371094 203.828125 109.210938 203.613281 109.03125 203.410156 C 108.851562 203.207031 108.65625 203.027344 108.441406 202.863281 C 108.222656 202.703125 107.996094 202.5625 107.753906 202.445312 C 107.507812 202.328125 107.257812 202.234375 106.996094 202.167969 C 106.734375 202.097656 106.46875 202.058594 106.199219 202.042969 C 105.929688 202.027344 105.660156 202.035156 105.394531 202.074219 C 105.125 202.113281 104.867188 202.175781 104.609375 202.261719 C 104.355469 202.351562 104.113281 202.464844 103.878906 202.601562 C 103.648438 202.738281 103.429688 202.898438 103.226562 203.078125 C 103.027344 203.253906 102.84375 203.453125 102.683594 203.667969 C 102.519531 203.882812 102.378906 204.113281 102.261719 204.355469 C 102.144531 204.597656 102.050781 204.851562 101.984375 205.113281 C 101.917969 205.375 101.875 205.640625 101.859375 205.910156 C 101.84375 206.179688 101.855469 206.445312 101.890625 206.714844 L 101.886719 206.757812 C 101.953125 207.203125 102.085938 207.628906 102.292969 208.027344 C 102.496094 208.429688 102.757812 208.789062 103.078125 209.105469 C 103.402344 209.421875 103.765625 209.675781 104.171875 209.871094 C 104.574219 210.070312 105.003906 210.195312 105.449219 210.253906 C 105.8125 210.304688 106.171875 210.292969 106.53125 210.222656 C 106.800781 210.183594 107.0625 210.121094 107.316406 210.035156 C 107.570312 209.945312 107.816406 209.832031 108.050781 209.695312 C 108.285156 209.558594 108.5 209.402344 108.703125 209.222656 C 108.90625 209.042969 109.085938 208.84375 109.25 208.628906 C 109.414062 208.414062 109.554688 208.183594 109.671875 207.9375 C 109.789062 207.695312 109.878906 207.441406 109.945312 207.179688 C 110.015625 206.917969 110.054688 206.652344 110.070312 206.382812 C 110.085938 206.113281 110.074219 205.84375 110.035156 205.578125 Z M 110.035156 205.578125 " fill-opacity="1" fill-rule="nonzero"/></g></g></g><g clip-path="url(#e543b04d82)"><g clip-path="url(#b626fc05b7)"><g clip-path="url(#f4fdb0865a)"><path fill="#004aad" d="M 110.035156 177.949219 C 110.515625 178.238281 111.03125 178.410156 111.589844 178.46875 C 111.988281 178.519531 112.386719 178.515625 112.785156 178.449219 C 113.183594 178.382812 113.5625 178.261719 113.921875 178.082031 C 114.28125 177.902344 114.609375 177.675781 114.902344 177.402344 C 115.199219 177.128906 115.445312 176.816406 115.648438 176.464844 C 115.785156 176.234375 115.898438 175.988281 115.988281 175.730469 C 116.074219 175.476562 116.140625 175.210938 116.175781 174.945312 C 116.214844 174.675781 116.222656 174.40625 116.207031 174.136719 C 116.191406 173.863281 116.152344 173.597656 116.082031 173.335938 C 116.011719 173.074219 115.921875 172.820312 115.800781 172.574219 C 115.683594 172.332031 115.542969 172.101562 115.378906 171.886719 C 115.214844 171.667969 115.03125 171.472656 114.828125 171.289062 C 114.625 171.109375 114.40625 170.953125 114.171875 170.816406 C 113.9375 170.679688 113.691406 170.566406 113.4375 170.476562 C 113.179688 170.390625 112.917969 170.328125 112.648438 170.289062 C 112.378906 170.253906 112.109375 170.246094 111.839844 170.261719 C 111.566406 170.277344 111.300781 170.320312 111.039062 170.390625 C 110.777344 170.460938 110.523438 170.554688 110.28125 170.671875 C 110.035156 170.792969 109.808594 170.933594 109.589844 171.097656 C 109.375 171.261719 109.179688 171.445312 109 171.652344 C 108.820312 171.855469 108.660156 172.074219 108.527344 172.308594 C 108.390625 172.542969 108.277344 172.789062 108.191406 173.046875 C 108.101562 173.300781 108.039062 173.566406 108.003906 173.832031 C 107.96875 174.101562 107.960938 174.371094 107.976562 174.644531 C 107.996094 174.914062 108.039062 175.179688 108.109375 175.441406 C 108.179688 175.703125 108.273438 175.957031 108.394531 176.199219 C 108.515625 176.441406 108.65625 176.671875 108.820312 176.886719 C 108.988281 177.101562 109.171875 177.300781 109.375 177.476562 C 109.578125 177.65625 109.800781 177.8125 110.035156 177.949219 Z M 110.035156 177.949219 " fill-opacity="1" fill-rule="nonzero"/></g></g></g><g clip-path="url(#eb1981bff4)"><g clip-path="url(#39a2c0d3ea)"><g clip-path="url(#8522821750)"><g clip-path="url(#5059868f4d)"><path fill="#000000" d="M 143.6875 312.253906 C 141.179688 315.6875 141.929688 320.503906 145.359375 323.015625 L 182.996094 350.5625 C 184.644531 351.769531 186.703125 352.269531 188.71875 351.957031 C 189.238281 351.875 189.742188 351.746094 190.230469 351.5625 C 191.625 351.042969 192.855469 350.121094 193.75 348.894531 L 352.695312 131.414062 C 353.898438 129.765625 354.398438 127.707031 354.085938 125.6875 C 353.769531 123.671875 352.671875 121.859375 351.023438 120.652344 L 313.386719 93.109375 C 311.738281 91.902344 309.675781 91.398438 307.660156 91.710938 C 305.648438 92.03125 303.835938 93.125 302.628906 94.773438 C 300.351562 97.894531 297.242188 100.253906 293.644531 101.597656 C 287.398438 103.929688 280.464844 102.972656 275.097656 99.042969 C 266.324219 92.621094 264.402344 80.265625 270.816406 71.492188 C 272.019531 69.84375 272.519531 67.785156 272.207031 65.765625 C 271.894531 63.746094 270.792969 61.9375 269.148438 60.730469 L 231.507812 33.1875 C 228.074219 30.675781 223.261719 31.417969 220.753906 34.851562 L 61.808594 252.332031 C 59.300781 255.765625 60.046875 260.582031 63.480469 263.09375 L 101.117188 290.640625 C 102.765625 291.847656 104.824219 292.347656 106.839844 292.035156 C 108.855469 291.71875 110.664062 290.621094 111.871094 288.972656 C 114.152344 285.851562 117.261719 283.488281 120.859375 282.144531 C 127.105469 279.816406 134.039062 280.773438 139.40625 284.703125 C 148.179688 291.121094 150.101562 303.484375 143.6875 312.253906 Z M 115.476562 267.71875 C 111.488281 269.207031 107.839844 271.394531 104.671875 274.164062 L 78.777344 255.210938 L 189.550781 103.640625 L 192.65625 105.914062 C 194.285156 107.105469 196.328125 107.320312 198.085938 106.664062 C 199.105469 106.28125 200.03125 105.609375 200.722656 104.664062 C 202.601562 102.089844 202.042969 98.476562 199.46875 96.59375 L 196.363281 94.320312 L 228.636719 50.160156 L 254.535156 69.113281 C 248.132812 83.839844 252.523438 101.597656 266.007812 111.472656 C 275.574219 118.472656 287.914062 120.171875 299.023438 116.027344 C 303.011719 114.539062 306.660156 112.355469 309.828125 109.582031 L 335.726562 128.535156 L 303.453125 172.695312 L 300.347656 170.421875 C 297.773438 168.535156 294.171875 169.101562 292.28125 171.671875 C 290.402344 174.246094 290.964844 177.859375 293.535156 179.742188 L 296.640625 182.015625 L 185.863281 333.585938 L 159.964844 314.632812 C 166.371094 299.910156 161.976562 282.148438 148.488281 272.273438 C 138.929688 265.277344 126.585938 263.574219 115.476562 267.71875 Z M 115.476562 267.71875 " fill-opacity="1" fill-rule="nonzero"/></g></g></g></g><g clip-path="url(#ded1b17b08)"><g clip-path="url(#92d84f0261)"><g clip-path="url(#010575cfc2)"><g clip-path="url(#4f54534404)"><path fill="#000000" d="M 273.359375 164.976562 C 274.988281 166.164062 277.03125 166.378906 278.789062 165.722656 C 279.808594 165.339844 280.738281 164.667969 281.425781 163.722656 C 283.304688 161.148438 282.742188 157.535156 280.171875 155.652344 L 259.992188 140.886719 C 257.421875 139.003906 253.808594 139.574219 251.925781 142.136719 C 250.046875 144.710938 250.609375 148.328125 253.183594 150.210938 Z M 273.359375 164.976562 " fill-opacity="1" fill-rule="nonzero"/></g></g></g></g><g clip-path="url(#9af62afcde)"><g clip-path="url(#cd427dbf1c)"><g clip-path="url(#a7940cc724)"><g clip-path="url(#23330829b4)"><path fill="#000000" d="M 233.007812 135.441406 C 234.632812 136.636719 236.679688 136.847656 238.4375 136.191406 C 239.457031 135.8125 240.378906 135.136719 241.074219 134.191406 C 242.953125 131.617188 242.390625 128.003906 239.820312 126.121094 L 219.644531 111.355469 C 217.074219 109.472656 213.46875 110.039062 211.578125 112.605469 C 209.699219 115.179688 210.261719 118.792969 212.832031 120.675781 Z M 233.007812 135.441406 " fill-opacity="1" fill-rule="nonzero"/></g></g></g></g><g clip-path="url(#6ba1ca7bde)"><g clip-path="url(#4c4e5f5d0d)"><g clip-path="url(#e89fa9d536)"><g clip-path="url(#b990d2f722)"><path fill="#000000" d="M 160.152344 46.355469 C 160.910156 42.175781 158.140625 38.164062 153.957031 37.40625 L 108.089844 29.046875 C 103.925781 28.289062 99.945312 31.03125 99.152344 35.179688 C 98.941406 36.308594 77.636719 148.546875 65.621094 214.710938 C 64.863281 218.890625 67.636719 222.902344 71.820312 223.664062 C 73.234375 223.921875 74.628906 223.773438 75.878906 223.308594 C 78.335938 222.390625 80.265625 220.238281 80.769531 217.46875 C 86.375 186.582031 94.007812 145.65625 100.574219 110.679688 L 103.195312 111.15625 C 104.257812 111.351562 105.296875 111.238281 106.242188 110.886719 C 108.082031 110.199219 109.527344 108.589844 109.90625 106.511719 C 110.476562 103.375 108.394531 100.363281 105.257812 99.792969 L 102.707031 99.328125 C 107.160156 75.640625 110.910156 55.808594 112.851562 45.566406 L 144.464844 51.328125 C 144.710938 57.632812 146.71875 63.734375 150.253906 69.121094 C 150.285156 69.179688 150.324219 69.230469 150.355469 69.285156 C 150.511719 69.523438 150.628906 69.78125 150.792969 70.019531 C 150.847656 70.097656 150.917969 70.152344 150.972656 70.226562 C 151.03125 70.304688 151.066406 70.386719 151.125 70.460938 C 158.117188 79.0625 167.304688 83.523438 177 83.027344 C 177.808594 82.984375 178.574219 82.820312 179.296875 82.550781 C 182.359375 81.410156 184.464844 78.378906 184.285156 74.941406 C 184.066406 70.695312 180.449219 67.429688 176.203125 67.648438 C 171.632812 67.882812 167.066406 65.519531 163.300781 61.007812 C 160.347656 56.691406 159.21875 51.503906 160.152344 46.355469 Z M 160.152344 46.355469 " fill-opacity="1" fill-rule="nonzero"/></g></g></g></g><g clip-path="url(#5f0b49bf9c)"><g clip-path="url(#1259b4093f)"><g clip-path="url(#acc9d8464c)"><g clip-path="url(#53d2447b71)"><path fill="#000000" d="M 63.402344 271.117188 C 59.210938 270.355469 55.210938 273.132812 54.453125 277.3125 C 52.628906 287.367188 51 300.230469 50.933594 300.773438 C 50.421875 304.828125 53.171875 308.578125 57.191406 309.3125 L 103.0625 317.671875 C 104.441406 317.921875 105.84375 317.792969 107.132812 317.3125 C 107.726562 317.089844 108.292969 316.796875 108.824219 316.429688 C 110.503906 315.265625 111.648438 313.480469 112.015625 311.472656 C 112.3125 309.820312 112.816406 308.222656 113.511719 306.71875 C 115.296875 302.859375 113.613281 298.28125 109.757812 296.492188 C 105.902344 294.707031 101.332031 296.386719 99.542969 300.246094 C 99.382812 300.59375 99.230469 300.941406 99.078125 301.296875 L 67.175781 295.480469 C 67.808594 290.96875 68.6875 285.082031 69.597656 280.074219 C 70.355469 275.890625 67.582031 271.878906 63.402344 271.117188 Z M 63.402344 271.117188 " fill-opacity="1" fill-rule="nonzero"/></g></g></g></g><g clip-path="url(#32ca214449)"><g clip-path="url(#45ed53abe2)"><g clip-path="url(#2cd1212423)"><g clip-path="url(#a5e63425e4)"><path fill="#000000" d="M 123.367188 103.09375 L 121.15625 114.429688 C 121.15625 114.429688 136.34375 117.398438 139.179688 117.914062 C 140.242188 118.105469 141.28125 117.996094 142.226562 117.644531 C 144.066406 116.957031 145.515625 115.34375 145.890625 113.265625 C 146.460938 110.128906 144.378906 107.121094 141.242188 106.550781 C 138.425781 106.039062 123.367188 103.097656 123.367188 103.09375 Z M 123.367188 103.09375 " fill-opacity="1" fill-rule="nonzero"/></g></g></g></g><g clip-path="url(#34107e9b4b)"><g clip-path="url(#ea46d978e4)"><g clip-path="url(#0acc7501f8)"><path fill="#004aad" d="M 246.785156 198.613281 C 246.5625 197.121094 246.277344 195.644531 245.925781 194.175781 C 245.578125 192.710938 245.167969 191.261719 244.699219 189.828125 C 244.226562 188.394531 243.695312 186.984375 243.105469 185.597656 C 242.515625 184.210938 241.871094 182.851562 241.164062 181.519531 C 240.460938 180.183594 239.699219 178.882812 238.886719 177.613281 C 238.070312 176.347656 237.207031 175.113281 236.285156 173.917969 C 235.367188 172.722656 234.402344 171.566406 233.386719 170.453125 C 232.371094 169.339844 231.308594 168.269531 230.203125 167.246094 C 229.097656 166.21875 227.949219 165.246094 226.761719 164.316406 C 225.574219 163.386719 224.347656 162.511719 223.085938 161.6875 C 221.824219 160.863281 220.527344 160.09375 219.199219 159.378906 C 217.875 158.664062 216.519531 158.003906 215.136719 157.402344 C 213.753906 156.804688 212.347656 156.261719 210.917969 155.777344 C 209.488281 155.296875 208.042969 154.875 206.578125 154.515625 C 205.117188 154.15625 203.640625 153.855469 202.148438 153.621094 C 200.660156 153.386719 199.164062 153.210938 197.660156 153.101562 L 200.335938 150.683594 C 200.53125 150.5 200.710938 150.300781 200.867188 150.082031 C 201.023438 149.867188 201.160156 149.636719 201.273438 149.390625 C 201.382812 149.148438 201.472656 148.898438 201.535156 148.636719 C 201.597656 148.375 201.636719 148.113281 201.648438 147.84375 C 201.660156 147.574219 201.644531 147.308594 201.605469 147.042969 C 201.5625 146.78125 201.5 146.519531 201.40625 146.269531 C 201.316406 146.015625 201.203125 145.773438 201.0625 145.546875 C 200.925781 145.316406 200.765625 145.101562 200.585938 144.902344 C 200.40625 144.703125 200.210938 144.523438 199.996094 144.363281 C 199.78125 144.203125 199.550781 144.066406 199.308594 143.949219 C 199.066406 143.832031 198.816406 143.742188 198.558594 143.675781 C 198.296875 143.609375 198.035156 143.566406 197.765625 143.554688 C 197.5 143.539062 197.234375 143.546875 196.96875 143.585938 C 196.703125 143.621094 196.441406 143.683594 196.1875 143.773438 C 195.933594 143.859375 195.691406 143.96875 195.460938 144.105469 C 195.230469 144.238281 195.011719 144.394531 194.8125 144.574219 L 183.800781 154.535156 C 182.992188 155.328125 182.554688 156.289062 182.496094 157.421875 C 182.457031 158.53125 182.796875 159.507812 183.511719 160.351562 L 193.472656 171.363281 C 193.839844 171.761719 194.269531 172.070312 194.761719 172.296875 C 195.253906 172.523438 195.769531 172.648438 196.308594 172.671875 C 196.851562 172.695312 197.375 172.617188 197.882812 172.433594 C 198.394531 172.25 198.847656 171.976562 199.25 171.613281 C 199.652344 171.25 199.96875 170.824219 200.203125 170.335938 C 200.4375 169.847656 200.570312 169.332031 200.597656 168.792969 C 200.628906 168.253906 200.558594 167.726562 200.382812 167.214844 C 200.207031 166.703125 199.9375 166.246094 199.582031 165.839844 L 195.410156 161.234375 C 196.289062 161.265625 197.164062 161.320312 198.039062 161.402344 C 198.914062 161.484375 199.78125 161.589844 200.652344 161.722656 C 201.519531 161.855469 202.382812 162.011719 203.242188 162.195312 C 204.097656 162.378906 204.953125 162.585938 205.796875 162.816406 C 206.644531 163.050781 207.484375 163.304688 208.316406 163.585938 C 209.148438 163.867188 209.96875 164.171875 210.785156 164.503906 C 211.597656 164.832031 212.402344 165.183594 213.195312 165.558594 C 213.988281 165.933594 214.769531 166.332031 215.542969 166.753906 C 216.3125 167.175781 217.070312 167.617188 217.8125 168.082031 C 218.558594 168.546875 219.289062 169.035156 220.003906 169.539062 C 220.722656 170.046875 221.421875 170.574219 222.109375 171.125 C 222.792969 171.671875 223.460938 172.242188 224.113281 172.828125 C 224.765625 173.414062 225.402344 174.019531 226.019531 174.644531 C 226.636719 175.269531 227.234375 175.910156 227.816406 176.570312 C 228.394531 177.226562 228.957031 177.902344 229.496094 178.59375 C 230.039062 179.285156 230.558594 179.992188 231.058594 180.714844 C 231.558594 181.4375 232.035156 182.171875 232.492188 182.921875 C 232.949219 183.671875 233.386719 184.433594 233.796875 185.207031 C 234.210938 185.980469 234.601562 186.769531 234.96875 187.566406 C 235.332031 188.363281 235.675781 189.171875 235.996094 189.988281 C 236.316406 190.804688 236.613281 191.632812 236.886719 192.464844 C 237.15625 193.300781 237.40625 194.144531 237.628906 194.992188 C 237.851562 195.839844 238.046875 196.695312 238.222656 197.554688 C 238.394531 198.417969 238.542969 199.28125 238.667969 200.152344 C 238.789062 201.019531 238.886719 201.890625 238.960938 202.765625 C 239.03125 203.640625 239.078125 204.519531 239.101562 205.394531 C 239.121094 206.273438 239.117188 207.152344 239.085938 208.027344 C 239.058594 208.90625 239.003906 209.78125 238.921875 210.65625 C 238.839844 211.53125 238.734375 212.402344 238.605469 213.269531 C 238.472656 214.136719 238.316406 215 238.136719 215.859375 C 237.953125 216.71875 237.746094 217.570312 237.515625 218.417969 C 237.285156 219.265625 237.03125 220.105469 236.75 220.9375 C 236.46875 221.769531 236.167969 222.589844 235.839844 223.40625 C 235.511719 224.21875 235.160156 225.023438 234.785156 225.816406 C 234.410156 226.613281 234.015625 227.394531 233.59375 228.164062 C 233.175781 228.9375 232.730469 229.695312 232.269531 230.4375 C 231.804688 231.183594 231.320312 231.914062 230.8125 232.632812 C 230.304688 233.347656 229.777344 234.050781 229.230469 234.738281 C 228.683594 235.421875 228.117188 236.09375 227.53125 236.746094 C 226.945312 237.398438 226.339844 238.035156 225.714844 238.652344 C 225.09375 239.273438 224.453125 239.871094 223.792969 240.453125 C 223.136719 241.035156 222.460938 241.59375 221.769531 242.136719 C 221.082031 242.679688 220.375 243.199219 219.652344 243.699219 C 218.933594 244.199219 218.199219 244.679688 217.449219 245.136719 C 216.699219 245.597656 215.9375 246.03125 215.164062 246.445312 C 214.390625 246.859375 213.605469 247.25 212.808594 247.617188 C 212.011719 247.984375 211.203125 248.332031 210.386719 248.652344 C 209.570312 248.972656 208.742188 249.269531 207.910156 249.542969 C 207.074219 249.816406 206.234375 250.0625 205.382812 250.289062 C 204.535156 250.511719 203.679688 250.710938 202.820312 250.886719 C 201.960938 251.0625 201.09375 251.210938 200.226562 251.335938 C 199.359375 251.457031 198.484375 251.558594 197.609375 251.628906 C 196.734375 251.703125 195.859375 251.753906 194.984375 251.773438 C 194.105469 251.796875 193.226562 251.792969 192.351562 251.765625 C 191.472656 251.738281 190.597656 251.683594 189.722656 251.605469 C 188.847656 251.523438 187.976562 251.417969 187.109375 251.289062 C 186.242188 251.160156 185.378906 251.003906 184.519531 250.824219 C 183.660156 250.644531 182.804688 250.4375 181.957031 250.207031 C 181.113281 249.976562 180.273438 249.722656 179.4375 249.445312 C 178.605469 249.167969 177.785156 248.863281 176.96875 248.535156 C 176.152344 248.210938 175.347656 247.859375 174.554688 247.488281 C 173.761719 247.113281 172.976562 246.71875 172.207031 246.296875 C 171.433594 245.878906 170.675781 245.4375 169.929688 244.976562 C 169.183594 244.511719 168.453125 244.027344 167.734375 243.523438 C 167.511719 243.367188 167.28125 243.234375 167.03125 243.125 C 166.785156 243.015625 166.527344 242.929688 166.265625 242.871094 C 166 242.8125 165.734375 242.78125 165.464844 242.773438 C 165.195312 242.765625 164.925781 242.785156 164.660156 242.832031 C 164.390625 242.878906 164.132812 242.949219 163.878906 243.046875 C 163.628906 243.144531 163.386719 243.265625 163.160156 243.410156 C 162.929688 243.554688 162.71875 243.722656 162.523438 243.90625 C 162.328125 244.09375 162.152344 244.296875 161.996094 244.519531 C 161.839844 244.742188 161.707031 244.976562 161.597656 245.222656 C 161.488281 245.46875 161.402344 245.726562 161.34375 245.988281 C 161.285156 246.253906 161.25 246.519531 161.246094 246.789062 C 161.238281 247.058594 161.257812 247.328125 161.304688 247.59375 C 161.351562 247.863281 161.421875 248.121094 161.519531 248.375 C 161.617188 248.625 161.738281 248.867188 161.882812 249.09375 C 162.027344 249.324219 162.191406 249.535156 162.378906 249.730469 C 162.566406 249.925781 162.769531 250.105469 162.988281 250.257812 C 165.121094 251.757812 167.347656 253.097656 169.675781 254.273438 C 172 255.445312 174.398438 256.445312 176.871094 257.269531 C 179.34375 258.09375 181.863281 258.734375 184.425781 259.191406 C 186.992188 259.648438 189.578125 259.917969 192.179688 260 C 194.785156 260.078125 197.382812 259.96875 199.972656 259.667969 C 202.558594 259.367188 205.113281 258.882812 207.628906 258.210938 C 210.148438 257.539062 212.601562 256.6875 214.996094 255.65625 C 217.390625 254.625 219.695312 253.429688 221.914062 252.0625 C 224.132812 250.695312 226.238281 249.171875 228.234375 247.496094 C 230.230469 245.824219 232.09375 244.011719 233.828125 242.066406 C 235.558594 240.117188 237.140625 238.054688 238.570312 235.878906 C 240.003906 233.699219 241.265625 231.429688 242.367188 229.066406 C 243.464844 226.707031 244.386719 224.277344 245.132812 221.777344 C 245.878906 219.28125 246.4375 216.742188 246.8125 214.164062 C 247.183594 211.585938 247.371094 208.996094 247.367188 206.390625 C 247.363281 203.78125 247.167969 201.191406 246.785156 198.613281 Z M 246.785156 198.613281 " fill-opacity="1" fill-rule="nonzero"/></g></g></g><g clip-path="url(#56e4ef31be)"><g clip-path="url(#2bd1f8fbec)"><g clip-path="url(#5929265996)"><path fill="#004aad" d="M 153.875 177.59375 C 154.304688 177.910156 154.773438 178.136719 155.289062 178.269531 C 155.804688 178.402344 156.324219 178.4375 156.851562 178.367188 C 157.378906 178.300781 157.875 178.132812 158.339844 177.871094 C 158.800781 177.613281 159.199219 177.273438 159.53125 176.855469 C 159.863281 176.441406 160.105469 175.976562 160.253906 175.46875 C 160.40625 174.957031 160.457031 174.4375 160.40625 173.910156 C 160.355469 173.378906 160.207031 172.878906 159.964844 172.40625 C 159.71875 171.933594 159.394531 171.527344 158.988281 171.179688 C 158.785156 171.003906 158.5625 170.851562 158.328125 170.71875 C 158.09375 170.585938 157.847656 170.480469 157.589844 170.394531 C 157.335938 170.3125 157.074219 170.253906 156.804688 170.222656 C 156.539062 170.191406 156.269531 170.183594 156 170.203125 C 155.730469 170.226562 155.46875 170.273438 155.207031 170.34375 C 154.949219 170.417969 154.699219 170.515625 154.457031 170.636719 C 154.214844 170.761719 153.988281 170.90625 153.777344 171.070312 C 153.566406 171.238281 153.371094 171.421875 153.195312 171.628906 C 153.019531 171.832031 152.867188 172.054688 152.734375 172.289062 C 152.601562 172.523438 152.496094 172.769531 152.410156 173.027344 C 152.328125 173.28125 152.269531 173.542969 152.238281 173.8125 C 152.207031 174.082031 152.199219 174.347656 152.222656 174.617188 C 152.242188 174.886719 152.289062 175.152344 152.359375 175.410156 C 152.433594 175.671875 152.53125 175.921875 152.652344 176.160156 C 152.777344 176.402344 152.921875 176.628906 153.085938 176.839844 C 153.253906 177.050781 153.441406 177.246094 153.644531 177.421875 Z M 153.875 177.59375 " fill-opacity="1" fill-rule="nonzero"/></g></g></g><g clip-path="url(#0ee68ed03e)"><g clip-path="url(#9107beadce)"><g clip-path="url(#955526382a)"><path fill="#004aad" d="M 151.660156 189.847656 C 151.761719 189.59375 151.835938 189.335938 151.886719 189.070312 C 151.933594 188.804688 151.957031 188.539062 151.953125 188.269531 C 151.949219 188 151.921875 187.730469 151.863281 187.46875 C 151.808594 187.203125 151.726562 186.949219 151.621094 186.699219 C 151.515625 186.453125 151.382812 186.214844 151.230469 185.996094 C 151.078125 185.773438 150.90625 185.566406 150.710938 185.378906 C 150.519531 185.191406 150.308594 185.023438 150.082031 184.875 C 149.855469 184.726562 149.617188 184.605469 149.367188 184.503906 C 149.117188 184.402344 148.859375 184.328125 148.59375 184.28125 C 148.328125 184.230469 148.058594 184.207031 147.789062 184.210938 C 147.519531 184.214844 147.253906 184.246094 146.988281 184.300781 C 146.722656 184.359375 146.46875 184.4375 146.21875 184.546875 C 145.972656 184.652344 145.738281 184.78125 145.515625 184.933594 C 145.292969 185.085938 145.085938 185.261719 144.898438 185.453125 C 144.710938 185.648438 144.542969 185.855469 144.394531 186.082031 C 144.25 186.308594 144.125 186.546875 144.023438 186.800781 L 144 186.835938 C 143.835938 187.253906 143.742188 187.6875 143.71875 188.140625 C 143.699219 188.589844 143.75 189.03125 143.871094 189.464844 C 143.996094 189.898438 144.183594 190.300781 144.4375 190.671875 C 144.695312 191.042969 145 191.363281 145.359375 191.636719 C 145.648438 191.859375 145.96875 192.03125 146.316406 192.144531 C 146.566406 192.246094 146.828125 192.320312 147.09375 192.371094 C 147.359375 192.421875 147.625 192.445312 147.894531 192.441406 C 148.167969 192.4375 148.433594 192.40625 148.699219 192.351562 C 148.964844 192.296875 149.21875 192.214844 149.46875 192.109375 C 149.714844 192 149.953125 191.871094 150.175781 191.71875 C 150.398438 191.5625 150.601562 191.390625 150.789062 191.195312 C 150.980469 191.003906 151.144531 190.792969 151.292969 190.5625 C 151.441406 190.335938 151.5625 190.097656 151.660156 189.847656 Z M 151.660156 189.847656 " fill-opacity="1" fill-rule="nonzero"/></g></g></g><g clip-path="url(#a14f19f80d)"><g clip-path="url(#6811c4620e)"><g clip-path="url(#c8b07705dc)"><path fill="#004aad" d="M 165.351562 165.851562 C 165.625 166.339844 165.988281 166.746094 166.445312 167.070312 C 166.765625 167.3125 167.117188 167.507812 167.492188 167.644531 C 167.871094 167.785156 168.261719 167.867188 168.664062 167.890625 C 169.066406 167.914062 169.460938 167.882812 169.851562 167.789062 C 170.246094 167.695312 170.613281 167.546875 170.960938 167.34375 C 171.195312 167.207031 171.417969 167.050781 171.621094 166.871094 C 171.824219 166.695312 172.011719 166.496094 172.175781 166.28125 C 172.34375 166.066406 172.484375 165.839844 172.605469 165.597656 C 172.726562 165.351562 172.820312 165.101562 172.890625 164.839844 C 172.960938 164.578125 173.007812 164.308594 173.023438 164.039062 C 173.042969 163.769531 173.035156 163.5 173 163.230469 C 172.964844 162.960938 172.902344 162.699219 172.816406 162.441406 C 172.726562 162.183594 172.617188 161.9375 172.480469 161.703125 C 172.34375 161.46875 172.1875 161.25 172.007812 161.046875 C 171.828125 160.84375 171.632812 160.65625 171.417969 160.492188 C 171.203125 160.328125 170.972656 160.183594 170.730469 160.066406 C 170.484375 159.945312 170.234375 159.851562 169.96875 159.78125 C 169.707031 159.710938 169.441406 159.667969 169.171875 159.652344 C 168.902344 159.632812 168.628906 159.644531 168.363281 159.679688 C 168.09375 159.714844 167.832031 159.777344 167.574219 159.867188 C 167.316406 159.953125 167.070312 160.066406 166.835938 160.203125 C 166.601562 160.339844 166.382812 160.496094 166.179688 160.675781 C 165.976562 160.855469 165.792969 161.054688 165.628906 161.269531 C 165.464844 161.484375 165.324219 161.714844 165.203125 161.957031 C 165.085938 162.203125 164.992188 162.457031 164.921875 162.71875 C 164.851562 162.980469 164.8125 163.246094 164.792969 163.515625 C 164.777344 163.789062 164.789062 164.058594 164.824219 164.328125 C 164.863281 164.59375 164.925781 164.859375 165.011719 165.113281 C 165.101562 165.371094 165.214844 165.617188 165.351562 165.851562 Z M 165.351562 165.851562 " fill-opacity="1" fill-rule="nonzero"/></g></g></g><g clip-path="url(#72f8b1c9fd)"><g clip-path="url(#333fe46b11)"><g clip-path="url(#d793111730)"><path fill="#004aad" d="M 157.03125 232.949219 C 156.878906 232.722656 156.703125 232.515625 156.503906 232.328125 C 156.308594 232.136719 156.09375 231.96875 155.863281 231.820312 C 155.632812 231.675781 155.390625 231.550781 155.136719 231.453125 C 154.878906 231.355469 154.617188 231.28125 154.347656 231.234375 C 154.078125 231.191406 153.808594 231.171875 153.535156 231.179688 C 153.261719 231.1875 152.992188 231.222656 152.726562 231.285156 C 152.457031 231.34375 152.199219 231.433594 151.953125 231.546875 C 151.703125 231.660156 151.46875 231.796875 151.246094 231.957031 C 151.027344 232.117188 150.820312 232.296875 150.636719 232.5 C 150.453125 232.699219 150.289062 232.917969 150.144531 233.152344 C 150.003906 233.386719 149.886719 233.632812 149.792969 233.886719 C 149.703125 234.144531 149.636719 234.410156 149.59375 234.679688 C 149.554688 234.949219 149.542969 235.222656 149.554688 235.496094 C 149.570312 235.769531 149.613281 236.035156 149.679688 236.300781 C 149.746094 236.566406 149.839844 236.820312 149.960938 237.066406 C 150.078125 237.316406 150.222656 237.546875 150.386719 237.765625 C 150.632812 238.109375 150.921875 238.40625 151.257812 238.664062 C 151.652344 238.957031 152.082031 239.167969 152.554688 239.304688 C 153.027344 239.441406 153.503906 239.488281 153.992188 239.453125 C 154.480469 239.417969 154.949219 239.300781 155.394531 239.097656 C 155.839844 238.894531 156.238281 238.621094 156.585938 238.273438 C 156.933594 237.929688 157.210938 237.535156 157.421875 237.09375 C 157.628906 236.648438 157.75 236.183594 157.792969 235.695312 C 157.832031 235.207031 157.789062 234.726562 157.65625 234.253906 C 157.527344 233.78125 157.320312 233.347656 157.03125 232.949219 Z M 157.03125 232.949219 " fill-opacity="1" fill-rule="nonzero"/></g></g></g><g clip-path="url(#3c5ac1805c)"><g clip-path="url(#d8fec730e3)"><g clip-path="url(#b86f7f08a0)"><path fill="#004aad" d="M 144.613281 200.257812 C 144.339844 200.246094 144.070312 200.257812 143.804688 200.300781 C 143.535156 200.339844 143.273438 200.40625 143.019531 200.5 C 142.765625 200.589844 142.519531 200.707031 142.289062 200.847656 C 142.058594 200.988281 141.839844 201.148438 141.640625 201.332031 C 141.441406 201.515625 141.261719 201.714844 141.101562 201.933594 C 140.941406 202.152344 140.804688 202.386719 140.6875 202.628906 C 140.574219 202.875 140.484375 203.132812 140.421875 203.394531 C 140.355469 203.65625 140.320312 203.925781 140.308594 204.195312 C 140.285156 204.878906 140.421875 205.527344 140.71875 206.144531 C 141.011719 206.757812 141.429688 207.273438 141.976562 207.683594 C 142.65625 208.1875 143.421875 208.445312 144.269531 208.464844 C 144.539062 208.476562 144.804688 208.464844 145.074219 208.425781 C 145.339844 208.386719 145.597656 208.320312 145.851562 208.230469 C 146.105469 208.140625 146.347656 208.023438 146.578125 207.886719 C 146.808594 207.746094 147.023438 207.585938 147.222656 207.40625 C 147.421875 207.222656 147.601562 207.023438 147.761719 206.808594 C 147.921875 206.589844 148.058594 206.359375 148.171875 206.117188 C 148.285156 205.871094 148.375 205.617188 148.4375 205.355469 C 148.5 205.09375 148.539062 204.828125 148.546875 204.558594 C 148.558594 204.289062 148.546875 204.019531 148.503906 203.753906 C 148.464844 203.484375 148.398438 203.222656 148.304688 202.96875 C 148.210938 202.714844 148.097656 202.472656 147.957031 202.238281 C 147.816406 202.007812 147.65625 201.792969 147.472656 201.59375 C 147.289062 201.394531 147.089844 201.210938 146.871094 201.050781 C 146.652344 200.890625 146.421875 200.753906 146.175781 200.640625 C 145.929688 200.523438 145.675781 200.4375 145.410156 200.371094 C 145.148438 200.308594 144.882812 200.269531 144.613281 200.257812 Z M 144.613281 200.257812 " fill-opacity="1" fill-rule="nonzero"/></g></g></g><g clip-path="url(#117a02fc24)"><g clip-path="url(#2db354680c)"><g clip-path="url(#a97335d1a4)"><path fill="#004aad" d="M 145.285156 216.703125 C 145.027344 216.78125 144.777344 216.882812 144.539062 217.011719 C 144.300781 217.136719 144.078125 217.285156 143.867188 217.457031 C 143.65625 217.628906 143.46875 217.816406 143.292969 218.027344 C 143.121094 218.234375 142.972656 218.457031 142.84375 218.695312 C 142.714844 218.933594 142.609375 219.179688 142.53125 219.4375 C 142.449219 219.695312 142.394531 219.960938 142.367188 220.226562 C 142.339844 220.496094 142.335938 220.765625 142.363281 221.035156 C 142.386719 221.304688 142.4375 221.566406 142.511719 221.828125 C 142.78125 222.699219 143.28125 223.410156 144.007812 223.957031 C 144.53125 224.339844 145.109375 224.585938 145.75 224.699219 C 146.386719 224.8125 147.015625 224.777344 147.636719 224.597656 C 147.894531 224.519531 148.144531 224.417969 148.382812 224.292969 C 148.621094 224.164062 148.84375 224.015625 149.054688 223.847656 C 149.265625 223.675781 149.453125 223.484375 149.628906 223.277344 C 149.800781 223.070312 149.949219 222.847656 150.078125 222.609375 C 150.207031 222.371094 150.3125 222.125 150.390625 221.867188 C 150.472656 221.609375 150.527344 221.34375 150.554688 221.074219 C 150.582031 220.808594 150.585938 220.539062 150.558594 220.269531 C 150.535156 220 150.484375 219.734375 150.410156 219.476562 C 150.335938 219.214844 150.234375 218.964844 150.113281 218.722656 C 149.988281 218.480469 149.839844 218.253906 149.671875 218.039062 C 149.5 217.828125 149.3125 217.636719 149.105469 217.460938 C 148.894531 217.289062 148.671875 217.136719 148.433594 217.007812 C 148.195312 216.878906 147.945312 216.773438 147.683594 216.695312 C 147.425781 216.613281 147.160156 216.5625 146.890625 216.535156 C 146.621094 216.511719 146.347656 216.511719 146.078125 216.539062 C 145.808594 216.566406 145.542969 216.621094 145.285156 216.703125 Z M 145.285156 216.703125 " fill-opacity="1" fill-rule="nonzero"/></g></g></g><g clip-path="url(#d5ff1ed018)"><g clip-path="url(#a5da53b4f8)"><g clip-path="url(#1238fe3c09)"><path fill="#004aad" d="M 187.640625 206.582031 L 191.058594 229.621094 C 191.148438 230.160156 191.332031 230.660156 191.613281 231.125 C 191.894531 231.589844 192.257812 231.984375 192.691406 232.308594 C 193.128906 232.632812 193.613281 232.863281 194.140625 232.996094 C 194.667969 233.132812 195.199219 233.164062 195.738281 233.089844 C 196.007812 233.050781 196.265625 232.984375 196.523438 232.894531 C 196.777344 232.804688 197.019531 232.6875 197.25 232.550781 C 197.484375 232.410156 197.699219 232.25 197.898438 232.066406 C 198.101562 231.886719 198.28125 231.6875 198.441406 231.46875 C 198.601562 231.253906 198.742188 231.023438 198.855469 230.777344 C 198.972656 230.53125 199.0625 230.277344 199.128906 230.015625 C 199.195312 229.753906 199.234375 229.488281 199.246094 229.21875 C 199.261719 228.949219 199.246094 228.679688 199.207031 228.410156 L 196.035156 207.050781 L 209.738281 188.570312 C 209.898438 188.355469 210.039062 188.121094 210.152344 187.878906 C 210.269531 187.632812 210.359375 187.378906 210.425781 187.117188 C 210.492188 186.855469 210.53125 186.589844 210.542969 186.320312 C 210.558594 186.050781 210.542969 185.78125 210.503906 185.511719 C 210.464844 185.246094 210.398438 184.984375 210.308594 184.730469 C 210.214844 184.476562 210.101562 184.230469 209.960938 184 C 209.824219 183.769531 209.664062 183.550781 209.480469 183.351562 C 209.300781 183.152344 209.101562 182.96875 208.882812 182.808594 C 208.664062 182.648438 208.433594 182.511719 208.191406 182.394531 C 207.945312 182.277344 207.691406 182.1875 207.429688 182.121094 C 207.167969 182.058594 206.902344 182.015625 206.632812 182.003906 C 206.359375 181.992188 206.09375 182.003906 205.824219 182.042969 C 205.558594 182.082031 205.296875 182.148438 205.042969 182.238281 C 204.785156 182.332031 204.542969 182.445312 204.3125 182.585938 C 204.078125 182.722656 203.863281 182.886719 203.664062 183.066406 C 203.464844 183.25 203.28125 183.449219 203.121094 183.664062 L 188.402344 203.515625 C 187.734375 204.4375 187.480469 205.457031 187.640625 206.582031 Z M 187.640625 206.582031 " fill-opacity="1" fill-rule="nonzero"/></g></g></g></svg>