<svg xmlns="http://www.w3.org/2000/svg" xmlns:xlink="http://www.w3.org/1999/xlink" width="500" zoomAndPan="magnify" viewBox="0 0 375 374.999991" height="500" preserveAspectRatio="xMidYMid meet" version="1.0"><defs><clipPath id="d0a0c141d6"><path d="M 52.039062 39.101562 L 343.789062 39.101562 L 343.789062 336.101562 L 52.039062 336.101562 Z M 52.039062 39.101562 " clip-rule="nonzero"/></clipPath></defs><rect x="-37.5" width="450" fill="#ffffff" y="-37.499999" height="449.999989" fill-opacity="1"/><rect x="-37.5" width="450" fill="#ffffff" y="-37.499999" height="449.999989" fill-opacity="1"/><g clip-path="url(#d0a0c141d6)"><path fill="#100f0d" d="M 334.042969 292.28125 C 334.042969 300.308594 327.492188 306.890625 319.457031 306.890625 L 134.714844 306.890625 C 137.867188 302.648438 139.574219 297.589844 139.574219 292.28125 L 139.574219 277.675781 L 334.042969 277.675781 Z M 290.289062 326.363281 L 115.265625 326.363281 C 107.253906 326.363281 100.683594 319.785156 100.683594 311.757812 L 100.683594 311.605469 C 104.765625 314.726562 109.777344 316.625 115.265625 316.625 L 304.054688 316.625 C 302.042969 322.273438 296.613281 326.363281 290.289062 326.363281 Z M 95.820312 326.363281 C 87.804688 326.363281 81.234375 319.785156 81.234375 311.757812 L 81.234375 121.871094 L 90.957031 121.871094 L 90.957031 311.757812 C 90.957031 317.253906 92.859375 322.273438 95.972656 326.363281 Z M 76.375 326.363281 C 68.359375 326.363281 61.789062 319.785156 61.789062 311.757812 L 61.789062 121.871094 L 71.511719 121.871094 L 71.511719 311.757812 C 71.511719 317.253906 73.410156 322.273438 76.527344 326.363281 Z M 304.871094 121.871094 L 304.871094 267.9375 L 134.714844 267.9375 C 132.035156 267.9375 129.851562 270.125 129.851562 272.808594 L 129.851562 292.28125 C 129.851562 296.179688 128.351562 299.832031 125.617188 302.609375 C 122.804688 305.386719 119.160156 306.890625 115.265625 306.890625 C 107.253906 306.890625 100.683594 300.308594 100.683594 292.28125 L 100.683594 121.871094 Z M 61.789062 87.789062 C 61.789062 79.765625 68.359375 73.183594 76.375 73.183594 L 134.03125 73.183594 C 131.847656 81.550781 124.308594 87.789062 115.265625 87.789062 C 112.589844 87.789062 110.40625 89.976562 110.40625 92.660156 C 110.40625 95.339844 112.589844 97.527344 115.265625 97.527344 C 129.699219 97.527344 141.664062 86.972656 144 73.183594 L 202.09375 73.183594 C 199.910156 81.550781 192.371094 87.789062 183.332031 87.789062 C 180.652344 87.789062 178.46875 89.976562 178.46875 92.660156 C 178.46875 95.339844 180.652344 97.527344 183.332031 97.527344 C 197.765625 97.527344 209.726562 86.972656 212.0625 73.183594 L 270.15625 73.183594 C 267.972656 81.550781 260.433594 87.789062 251.394531 87.789062 C 248.714844 87.789062 246.53125 89.976562 246.53125 92.660156 C 246.53125 95.339844 248.714844 97.527344 251.394531 97.527344 C 265.828125 97.527344 277.792969 86.972656 280.128906 73.183594 L 290.289062 73.183594 C 298.320312 73.183594 304.871094 79.765625 304.871094 87.789062 L 304.871094 112.136719 L 61.789062 112.136719 Z M 115.265625 48.839844 C 124.308594 48.839844 131.847656 55.078125 134.03125 63.445312 L 96.503906 63.445312 C 98.6875 55.078125 106.226562 48.839844 115.265625 48.839844 Z M 183.332031 48.839844 C 192.371094 48.839844 199.910156 55.078125 202.09375 63.445312 L 164.566406 63.445312 C 166.75 55.078125 174.289062 48.839844 183.332031 48.839844 Z M 251.394531 48.839844 C 260.433594 48.839844 267.972656 55.078125 270.15625 63.445312 L 232.632812 63.445312 C 234.816406 55.078125 242.355469 48.839844 251.394531 48.839844 Z M 338.90625 267.9375 L 314.597656 267.9375 L 314.597656 87.789062 C 314.597656 74.34375 303.714844 63.445312 290.289062 63.445312 L 280.128906 63.445312 C 277.792969 49.65625 265.828125 39.101562 251.394531 39.101562 C 236.960938 39.101562 224.996094 49.65625 222.660156 63.445312 L 212.0625 63.445312 C 209.726562 49.65625 197.765625 39.101562 183.332031 39.101562 C 168.898438 39.101562 156.933594 49.65625 154.597656 63.445312 L 144 63.445312 C 141.664062 49.65625 129.699219 39.101562 115.265625 39.101562 C 100.835938 39.101562 88.871094 49.65625 86.535156 63.445312 L 76.375 63.445312 C 62.945312 63.445312 52.066406 74.34375 52.066406 87.789062 L 52.066406 311.757812 C 52.066406 325.203125 62.945312 336.101562 76.375 336.101562 L 290.289062 336.101562 C 302.003906 336.101562 311.824219 327.734375 314.121094 316.625 L 319.457031 316.625 C 332.882812 316.625 343.765625 305.730469 343.765625 292.28125 L 343.765625 272.808594 C 343.765625 270.125 341.582031 267.9375 338.90625 267.9375 " fill-opacity="1" fill-rule="nonzero"/></g><path fill="#100f0d" d="M 265.980469 180.296875 L 246.53125 180.296875 L 246.53125 160.824219 L 265.980469 160.824219 Z M 270.839844 151.085938 L 241.671875 151.085938 C 238.992188 151.085938 236.808594 153.273438 236.808594 155.953125 L 236.808594 185.167969 C 236.808594 187.847656 238.992188 190.035156 241.671875 190.035156 L 270.839844 190.035156 C 273.519531 190.035156 275.703125 187.847656 275.703125 185.167969 L 275.703125 155.953125 C 275.703125 153.273438 273.519531 151.085938 270.839844 151.085938 " fill-opacity="1" fill-rule="nonzero"/><path fill="#100f0d" d="M 207.640625 180.296875 L 188.191406 180.296875 L 188.191406 160.824219 L 207.640625 160.824219 Z M 212.5 151.085938 L 183.332031 151.085938 C 180.652344 151.085938 178.46875 153.273438 178.46875 155.953125 L 178.46875 185.167969 C 178.46875 187.847656 180.652344 190.035156 183.332031 190.035156 L 212.5 190.035156 C 215.179688 190.035156 217.363281 187.847656 217.363281 185.167969 L 217.363281 155.953125 C 217.363281 153.273438 215.179688 151.085938 212.5 151.085938 " fill-opacity="1" fill-rule="nonzero"/><path fill="#100f0d" d="M 149.300781 180.296875 L 129.851562 180.296875 L 129.851562 160.824219 L 149.300781 160.824219 Z M 154.160156 151.085938 L 124.992188 151.085938 C 122.3125 151.085938 120.128906 153.273438 120.128906 155.953125 L 120.128906 185.167969 C 120.128906 187.847656 122.3125 190.035156 124.992188 190.035156 L 154.160156 190.035156 C 156.839844 190.035156 159.023438 187.847656 159.023438 185.167969 L 159.023438 155.953125 C 159.023438 153.273438 156.839844 151.085938 154.160156 151.085938 " fill-opacity="1" fill-rule="nonzero"/><path fill="#100f0d" d="M 265.980469 238.726562 L 246.53125 238.726562 L 246.53125 219.25 L 265.980469 219.25 Z M 270.839844 209.511719 L 241.671875 209.511719 C 238.992188 209.511719 236.808594 211.699219 236.808594 214.378906 L 236.808594 243.59375 C 236.808594 246.277344 238.992188 248.460938 241.671875 248.460938 L 270.839844 248.460938 C 273.519531 248.460938 275.703125 246.277344 275.703125 243.59375 L 275.703125 214.378906 C 275.703125 211.699219 273.519531 209.511719 270.839844 209.511719 " fill-opacity="1" fill-rule="nonzero"/><path fill="#100f0d" d="M 207.640625 238.726562 L 188.191406 238.726562 L 188.191406 219.25 L 207.640625 219.25 Z M 212.5 209.511719 L 183.332031 209.511719 C 180.652344 209.511719 178.46875 211.699219 178.46875 214.378906 L 178.46875 243.59375 C 178.46875 246.277344 180.652344 248.460938 183.332031 248.460938 L 212.5 248.460938 C 215.179688 248.460938 217.363281 246.277344 217.363281 243.59375 L 217.363281 214.378906 C 217.363281 211.699219 215.179688 209.511719 212.5 209.511719 " fill-opacity="1" fill-rule="nonzero"/><path fill="#100f0d" d="M 149.300781 238.726562 L 129.851562 238.726562 L 129.851562 219.25 L 149.300781 219.25 Z M 154.160156 209.511719 L 124.992188 209.511719 C 122.3125 209.511719 120.128906 211.699219 120.128906 214.378906 L 120.128906 243.59375 C 120.128906 246.277344 122.3125 248.460938 124.992188 248.460938 L 154.160156 248.460938 C 156.839844 248.460938 159.023438 246.277344 159.023438 243.59375 L 159.023438 214.378906 C 159.023438 211.699219 156.839844 209.511719 154.160156 209.511719 " fill-opacity="1" fill-rule="nonzero"/><path fill="#100f0d" d="M 290.289062 131.609375 L 270.839844 131.609375 C 268.164062 131.609375 265.980469 133.796875 265.980469 136.480469 C 265.980469 139.160156 268.164062 141.347656 270.839844 141.347656 L 285.425781 141.347656 L 285.425781 155.953125 C 285.425781 158.636719 287.609375 160.824219 290.289062 160.824219 C 292.964844 160.824219 295.148438 158.636719 295.148438 155.953125 L 295.148438 136.480469 C 295.148438 133.796875 292.964844 131.609375 290.289062 131.609375 " fill-opacity="1" fill-rule="nonzero"/></svg>