<svg xmlns="http://www.w3.org/2000/svg" xmlns:xlink="http://www.w3.org/1999/xlink" width="500" zoomAndPan="magnify" viewBox="0 0 375 374.999991" height="500" preserveAspectRatio="xMidYMid meet" version="1.0"><defs><clipPath id="49ebd8e8ea"><path d="M 60 25.222656 L 314.910156 25.222656 L 314.910156 349.972656 L 60 349.972656 Z M 60 25.222656 " clip-rule="nonzero"/></clipPath></defs><rect x="-37.5" width="450" fill="#ffffff" y="-37.499999" height="449.999989" fill-opacity="1"/><rect x="-37.5" width="450" fill="#ffffff" y="-37.499999" height="449.999989" fill-opacity="1"/><path fill="#000000" d="M 149.839844 279.273438 L 222.714844 279.273438 L 222.714844 291 L 149.839844 291 Z M 143.070312 304.53125 L 229.484375 304.53125 C 233.222656 304.53125 236.25 301.5 236.25 297.765625 L 236.25 272.507812 C 236.25 268.769531 233.222656 265.738281 229.484375 265.738281 L 143.070312 265.738281 C 139.332031 265.738281 136.304688 268.769531 136.304688 272.507812 L 136.304688 297.765625 C 136.304688 301.5 139.332031 304.53125 143.070312 304.53125 " fill-opacity="1" fill-rule="nonzero"/><g clip-path="url(#49ebd8e8ea)"><path fill="#000000" d="M 300.933594 58.175781 C 298.046875 76.300781 289.464844 115.191406 267.65625 131.167969 C 274.140625 112.40625 278.457031 87.339844 279.683594 53.140625 C 279.804688 53.148438 279.921875 53.179688 280.046875 53.179688 L 296.628906 53.179688 C 298.390625 53.179688 299.472656 54.132812 299.957031 54.707031 C 300.441406 55.269531 301.207031 56.472656 300.933594 58.175781 Z M 206.453125 177.214844 C 198.0625 180.714844 192.636719 188.902344 192.636719 198.082031 L 192.636719 216.210938 C 192.636719 225.835938 200.46875 233.664062 210.089844 233.664062 L 215.152344 233.664062 C 219.332031 233.664062 222.824219 236.625 223.660156 240.5625 L 148.902344 240.5625 C 149.734375 236.625 153.226562 233.664062 157.40625 233.664062 L 162.46875 233.664062 C 172.09375 233.664062 179.921875 225.835938 179.921875 216.210938 L 179.921875 197.492188 C 179.921875 188.617188 174.816406 180.507812 166.914062 176.832031 C 136.777344 162.816406 107.339844 140.523438 106.089844 39.089844 L 266.46875 39.089844 C 265.179688 152.742188 231.3125 166.863281 206.453125 177.214844 Z M 248.652344 312.902344 L 123.902344 312.902344 L 123.902344 254.09375 L 248.652344 254.09375 Z M 258.828125 335.886719 L 113.730469 335.886719 L 113.730469 326.4375 L 258.828125 326.4375 Z M 74.125 58.179688 C 73.855469 56.472656 74.625 55.269531 75.101562 54.707031 C 75.589844 54.132812 76.671875 53.179688 78.429688 53.179688 L 92.917969 53.179688 C 94.253906 86.527344 98.867188 111.164062 105.648438 129.792969 C 85.136719 113.0625 76.9375 75.800781 74.125 58.179688 Z M 310.257812 45.925781 C 306.851562 41.929688 301.882812 39.640625 296.628906 39.640625 L 280.046875 39.640625 C 280.023438 39.640625 280.003906 39.648438 279.980469 39.648438 C 280.007812 37.226562 280.042969 34.828125 280.042969 32.324219 C 280.042969 28.585938 277.011719 25.554688 273.273438 25.554688 L 99.28125 25.554688 C 95.546875 25.554688 92.515625 28.585938 92.515625 32.324219 C 92.515625 34.824219 92.554688 37.226562 92.582031 39.640625 L 78.429688 39.640625 C 73.179688 39.640625 68.210938 41.929688 64.804688 45.925781 C 61.410156 49.902344 59.9375 55.148438 60.757812 60.3125 C 65.429688 89.597656 78.65625 139.351562 115.015625 149.851562 C 127.707031 171.222656 144.355469 181.269531 161.207031 189.105469 C 164.355469 190.566406 166.386719 193.859375 166.386719 197.492188 L 166.386719 216.210938 C 166.386719 218.335938 164.589844 220.128906 162.46875 220.128906 L 157.40625 220.128906 C 145.753906 220.128906 136.183594 229.144531 135.261719 240.5625 L 117.140625 240.5625 C 113.402344 240.5625 110.371094 243.59375 110.371094 247.328125 L 110.371094 312.902344 L 106.960938 312.902344 C 103.222656 312.902344 100.195312 315.929688 100.195312 319.671875 L 100.195312 342.65625 C 100.195312 346.394531 103.222656 349.425781 106.960938 349.425781 L 265.59375 349.425781 C 269.328125 349.425781 272.363281 346.394531 272.363281 342.65625 L 272.363281 319.671875 C 272.363281 315.929688 269.328125 312.902344 265.59375 312.902344 L 262.1875 312.902344 L 262.1875 247.328125 C 262.1875 243.59375 259.15625 240.5625 255.421875 240.5625 L 237.296875 240.5625 C 236.371094 229.144531 226.804688 220.128906 215.152344 220.128906 L 210.089844 220.128906 C 207.933594 220.128906 206.171875 218.371094 206.171875 216.210938 L 206.171875 198.082031 C 206.171875 194.386719 208.328125 191.097656 211.660156 189.710938 C 229.679688 182.203125 246.773438 172.617188 259.367188 150.023438 C 296.226562 139.949219 309.597656 89.777344 314.300781 60.308594 C 315.125 55.148438 313.648438 49.902344 310.257812 45.925781 " fill-opacity="1" fill-rule="nonzero"/></g></svg>