<svg xmlns="http://www.w3.org/2000/svg" xmlns:xlink="http://www.w3.org/1999/xlink" width="500" zoomAndPan="magnify" viewBox="0 0 375 374.999991" height="500" preserveAspectRatio="xMidYMid meet" version="1.0"><defs><g/><clipPath id="de2f5f2ddb"><path d="M 24.175781 62.355469 L 351.140625 62.355469 L 351.140625 312.613281 L 24.175781 312.613281 Z M 24.175781 62.355469 " clip-rule="nonzero"/></clipPath></defs><rect x="-37.5" width="450" fill="#ffffff" y="-37.499999" height="449.999989" fill-opacity="1"/><rect x="-37.5" width="450" fill="#ffffff" y="-37.499999" height="449.999989" fill-opacity="1"/><g clip-path="url(#de2f5f2ddb)"><path fill="#000000" d="M 263.976562 233.007812 C 263.613281 232.644531 263.613281 231.921875 263.613281 231.199219 L 263.613281 162.195312 C 263.613281 122.8125 233.59375 90.65625 194.894531 86.683594 L 194.894531 70.066406 C 194.894531 66.089844 191.636719 62.839844 187.660156 62.839844 C 183.679688 62.839844 180.425781 66.089844 180.425781 70.066406 L 180.425781 86.683594 C 142.085938 90.296875 111.707031 122.8125 111.707031 162.195312 L 111.707031 231.5625 C 111.707031 232.285156 111.34375 232.644531 110.980469 233.007812 L 92.898438 251.070312 C 89.640625 254.324219 88.195312 258.296875 88.195312 262.992188 L 88.195312 268.414062 C 88.195312 277.445312 95.792969 285.03125 104.832031 285.03125 L 155.46875 285.03125 C 158 300.207031 171.382812 312.128906 187.660156 312.128906 C 203.933594 312.128906 217.316406 300.566406 219.851562 285.03125 L 270.484375 285.03125 C 279.527344 285.03125 287.125 277.445312 287.125 268.414062 L 287.125 262.992188 C 287.125 258.65625 285.316406 254.324219 282.421875 251.070312 Z M 187.660156 297.675781 C 179.703125 297.675781 172.832031 292.257812 170.660156 285.03125 L 205.019531 285.03125 C 202.488281 292.257812 195.617188 297.675781 187.660156 297.675781 Z M 272.65625 268.414062 C 272.65625 269.496094 271.570312 270.582031 270.484375 270.582031 L 104.832031 270.582031 C 103.75 270.582031 102.664062 269.496094 102.664062 268.414062 L 102.664062 262.992188 C 102.664062 262.269531 103.023438 261.910156 103.386719 261.546875 L 121.472656 243.484375 C 124.726562 240.230469 126.171875 236.257812 126.171875 231.5625 L 126.171875 162.195312 C 126.171875 128.59375 153.660156 100.773438 187.660156 100.773438 C 221.65625 100.773438 249.144531 128.230469 249.144531 162.195312 L 249.144531 231.5625 C 249.144531 235.898438 250.953125 240.230469 253.847656 243.484375 L 271.933594 261.546875 C 272.292969 261.910156 272.65625 262.632812 272.65625 262.992188 Z M 88.558594 225.417969 C 87.109375 226.863281 85.300781 227.585938 83.492188 227.585938 C 81.683594 227.585938 79.878906 226.863281 78.429688 225.417969 C 66.855469 213.859375 60.347656 198.324219 60.347656 182.0625 C 60.347656 165.804688 66.855469 150.269531 78.429688 138.710938 C 81.324219 135.820312 85.664062 135.820312 88.558594 138.710938 C 91.449219 141.601562 91.449219 145.933594 88.558594 148.824219 C 79.515625 157.859375 74.8125 169.417969 74.8125 182.0625 C 74.8125 194.710938 79.878906 206.269531 88.558594 215.304688 C 91.449219 218.195312 91.449219 222.527344 88.558594 225.417969 Z M 62.878906 240.953125 C 65.769531 243.84375 65.769531 248.179688 62.878906 251.070312 C 61.429688 252.515625 59.621094 253.238281 57.8125 253.238281 C 56.003906 253.238281 54.199219 252.515625 52.75 251.070312 C 34.304688 232.644531 24.175781 208.078125 24.175781 182.0625 C 24.175781 156.050781 34.304688 131.484375 52.75 113.058594 C 55.644531 110.167969 59.984375 110.167969 62.878906 113.058594 C 65.769531 115.949219 65.769531 120.285156 62.878906 123.175781 C 47.324219 138.710938 38.644531 159.664062 38.644531 182.0625 C 38.644531 204.464844 47.324219 225.058594 62.878906 240.953125 Z M 296.890625 225.417969 C 295.441406 226.863281 293.632812 227.585938 291.824219 227.585938 C 290.015625 227.585938 288.207031 226.863281 286.761719 225.417969 C 283.867188 222.527344 283.867188 218.195312 286.761719 215.304688 C 305.207031 196.878906 305.207031 167.25 286.761719 148.824219 C 283.867188 145.933594 283.867188 141.601562 286.761719 138.710938 C 289.65625 135.820312 293.996094 135.820312 296.890625 138.710938 C 320.761719 162.554688 320.761719 201.574219 296.890625 225.417969 Z M 351.140625 182.0625 C 351.140625 208.078125 341.015625 232.644531 322.570312 251.070312 C 321.121094 252.515625 319.3125 253.238281 317.503906 253.238281 C 315.695312 253.238281 313.886719 252.515625 312.441406 251.070312 C 309.546875 248.179688 309.546875 243.84375 312.441406 240.953125 C 327.992188 225.417969 336.675781 204.464844 336.675781 182.0625 C 336.675781 159.664062 327.992188 139.070312 312.441406 123.175781 C 309.546875 120.285156 309.546875 115.949219 312.441406 113.058594 C 315.335938 110.167969 319.675781 110.167969 322.570312 113.058594 C 341.015625 131.484375 351.140625 156.050781 351.140625 182.0625 Z M 351.140625 182.0625 " fill-opacity="1" fill-rule="nonzero"/></g><g fill="#ff3131" fill-opacity="1"><g transform="translate(157.805692, 235.940473)"><g><path d="M 35.390625 0.21875 C 31.773438 0.21875 28.972656 -0.882812 26.984375 -3.09375 C 24.992188 -5.3125 24 -8.039062 24 -11.28125 L 24 -50.875 L 21.796875 -50.875 C 21.273438 -49.1875 20.164062 -47.675781 18.46875 -46.34375 C 16.769531 -45.019531 14.632812 -44.359375 12.0625 -44.359375 C 9.257812 -44.359375 6.804688 -45.296875 4.703125 -47.171875 C 2.597656 -49.054688 1.546875 -51.691406 1.546875 -55.078125 C 1.546875 -57.660156 2.132812 -59.835938 3.3125 -61.609375 C 4.5 -63.378906 6.015625 -65.113281 7.859375 -66.8125 L 15.921875 -74 C 18.722656 -76.507812 21.34375 -78.332031 23.78125 -79.46875 C 26.21875 -80.613281 29.019531 -81.1875 32.1875 -81.1875 C 34.769531 -81.1875 37.164062 -80.632812 39.375 -79.53125 C 41.582031 -78.425781 43.367188 -76.710938 44.734375 -74.390625 C 46.097656 -72.066406 46.78125 -69.023438 46.78125 -65.265625 L 46.78125 -11.28125 C 46.78125 -8.039062 45.820312 -5.3125 43.90625 -3.09375 C 41.988281 -0.882812 39.148438 0.21875 35.390625 0.21875 Z M 35.390625 0.21875 "/></g></g></g></svg>