<svg xmlns="http://www.w3.org/2000/svg" xmlns:xlink="http://www.w3.org/1999/xlink" width="500" zoomAndPan="magnify" viewBox="0 0 375 374.999991" height="500" preserveAspectRatio="xMidYMid meet" version="1.0"><defs><clipPath id="8132c7b7df"><path d="M 53.410156 53.410156 L 321.910156 53.410156 L 321.910156 321.910156 L 53.410156 321.910156 Z M 53.410156 53.410156 " clip-rule="nonzero"/></clipPath><clipPath id="f75a95920b"><path d="M 112.5 116.363281 L 272.042969 116.363281 L 272.042969 255 L 112.5 255 Z M 112.5 116.363281 " clip-rule="nonzero"/></clipPath><clipPath id="a48ad81259"><path d="M 99.222656 116.878906 L 275.472656 116.878906 L 275.472656 164 L 99.222656 164 Z M 99.222656 116.878906 " clip-rule="nonzero"/></clipPath><clipPath id="8668510e12"><path d="M 99.222656 211 L 275.472656 211 L 275.472656 257.878906 L 99.222656 257.878906 Z M 99.222656 211 " clip-rule="nonzero"/></clipPath><clipPath id="047c13a920"><path d="M 99.222656 163 L 275.472656 163 L 275.472656 212 L 99.222656 212 Z M 99.222656 163 " clip-rule="nonzero"/></clipPath></defs><rect x="-37.5" width="450" fill="#ffffff" y="-37.499999" height="449.999989" fill-opacity="1"/><rect x="-37.5" width="450" fill="#ffffff" y="-37.499999" height="449.999989" fill-opacity="1"/><g clip-path="url(#8132c7b7df)"><path fill="#000000" d="M 288.347656 53.410156 L 86.972656 53.410156 C 85.875 53.414062 84.777344 53.46875 83.6875 53.574219 C 82.59375 53.683594 81.507812 53.847656 80.429688 54.0625 C 79.351562 54.277344 78.285156 54.542969 77.234375 54.863281 C 76.183594 55.183594 75.148438 55.554688 74.132812 55.972656 C 73.121094 56.394531 72.128906 56.863281 71.160156 57.382812 C 70.1875 57.902344 69.25 58.464844 68.335938 59.078125 C 67.421875 59.6875 66.539062 60.339844 65.691406 61.039062 C 64.839844 61.734375 64.027344 62.472656 63.25 63.25 C 62.472656 64.027344 61.734375 64.839844 61.039062 65.691406 C 60.339844 66.539062 59.6875 67.421875 59.078125 68.335938 C 58.464844 69.25 57.902344 70.1875 57.382812 71.160156 C 56.863281 72.128906 56.394531 73.121094 55.972656 74.132812 C 55.554688 75.148438 55.183594 76.183594 54.863281 77.234375 C 54.542969 78.285156 54.277344 79.351562 54.0625 80.429688 C 53.847656 81.507812 53.683594 82.59375 53.574219 83.683594 C 53.46875 84.777344 53.414062 85.875 53.410156 86.972656 L 53.410156 288.347656 C 53.414062 289.449219 53.46875 290.542969 53.574219 291.636719 C 53.683594 292.730469 53.847656 293.816406 54.0625 294.894531 C 54.277344 295.972656 54.542969 297.039062 54.863281 298.089844 C 55.183594 299.140625 55.554688 300.175781 55.972656 301.1875 C 56.394531 302.203125 56.863281 303.195312 57.382812 304.164062 C 57.902344 305.132812 58.464844 306.074219 59.078125 306.988281 C 59.6875 307.902344 60.339844 308.785156 61.039062 309.632812 C 61.734375 310.484375 62.472656 311.296875 63.25 312.074219 C 64.027344 312.851562 64.839844 313.589844 65.691406 314.285156 C 66.539062 314.984375 67.421875 315.636719 68.335938 316.246094 C 69.25 316.859375 70.1875 317.421875 71.160156 317.941406 C 72.128906 318.460938 73.121094 318.929688 74.132812 319.351562 C 75.148438 319.769531 76.183594 320.140625 77.234375 320.460938 C 78.285156 320.78125 79.351562 321.046875 80.429688 321.261719 C 81.507812 321.476562 82.59375 321.640625 83.6875 321.746094 C 84.777344 321.855469 85.875 321.910156 86.972656 321.910156 L 288.347656 321.910156 C 289.449219 321.910156 290.542969 321.855469 291.636719 321.746094 C 292.730469 321.640625 293.816406 321.476562 294.894531 321.261719 C 295.972656 321.046875 297.039062 320.78125 298.089844 320.460938 C 299.140625 320.140625 300.175781 319.769531 301.1875 319.351562 C 302.203125 318.929688 303.195312 318.460938 304.164062 317.941406 C 305.132812 317.421875 306.074219 316.859375 306.988281 316.246094 C 307.902344 315.636719 308.785156 314.984375 309.632812 314.285156 C 310.484375 313.589844 311.296875 312.851562 312.074219 312.074219 C 312.851562 311.296875 313.589844 310.484375 314.285156 309.632812 C 314.984375 308.785156 315.636719 307.902344 316.246094 306.988281 C 316.859375 306.074219 317.421875 305.132812 317.941406 304.164062 C 318.460938 303.195312 318.929688 302.203125 319.351562 301.1875 C 319.769531 300.175781 320.140625 299.140625 320.460938 298.089844 C 320.78125 297.039062 321.046875 295.972656 321.261719 294.894531 C 321.476562 293.816406 321.640625 292.730469 321.746094 291.636719 C 321.855469 290.542969 321.910156 289.449219 321.910156 288.347656 L 321.910156 86.972656 C 321.910156 85.875 321.855469 84.777344 321.746094 83.683594 C 321.640625 82.59375 321.476562 81.507812 321.261719 80.429688 C 321.046875 79.351562 320.78125 78.285156 320.460938 77.234375 C 320.140625 76.183594 319.769531 75.148438 319.351562 74.132812 C 318.929688 73.121094 318.460938 72.128906 317.941406 71.160156 C 317.421875 70.1875 316.859375 69.25 316.246094 68.335938 C 315.636719 67.421875 314.984375 66.539062 314.285156 65.691406 C 313.589844 64.839844 312.851562 64.027344 312.074219 63.25 C 311.296875 62.472656 310.484375 61.734375 309.632812 61.039062 C 308.785156 60.339844 307.902344 59.6875 306.988281 59.078125 C 306.074219 58.464844 305.132812 57.902344 304.164062 57.382812 C 303.195312 56.863281 302.203125 56.394531 301.1875 55.972656 C 300.175781 55.554688 299.140625 55.183594 298.089844 54.863281 C 297.039062 54.542969 295.972656 54.277344 294.894531 54.0625 C 293.816406 53.847656 292.730469 53.683594 291.636719 53.574219 C 290.542969 53.46875 289.449219 53.414062 288.347656 53.410156 Z M 308.488281 288.347656 C 308.484375 289.007812 308.453125 289.667969 308.386719 290.324219 C 308.320312 290.976562 308.226562 291.628906 308.09375 292.277344 C 307.964844 292.921875 307.804688 293.5625 307.613281 294.191406 C 307.421875 294.824219 307.199219 295.441406 306.945312 296.050781 C 306.695312 296.660156 306.414062 297.253906 306.101562 297.835938 C 305.789062 298.417969 305.453125 298.984375 305.085938 299.53125 C 304.71875 300.078125 304.324219 300.609375 303.90625 301.117188 C 303.488281 301.625 303.046875 302.113281 302.582031 302.582031 C 302.113281 303.046875 301.625 303.488281 301.117188 303.90625 C 300.609375 304.324219 300.078125 304.71875 299.53125 305.085938 C 298.984375 305.453125 298.417969 305.789062 297.835938 306.101562 C 297.253906 306.414062 296.660156 306.695312 296.050781 306.945312 C 295.441406 307.199219 294.824219 307.421875 294.191406 307.613281 C 293.5625 307.804688 292.921875 307.964844 292.277344 308.09375 C 291.628906 308.226562 290.976562 308.320312 290.324219 308.386719 C 289.667969 308.453125 289.007812 308.484375 288.347656 308.488281 L 86.972656 308.488281 C 86.316406 308.484375 85.65625 308.453125 85 308.386719 C 84.34375 308.320312 83.695312 308.226562 83.046875 308.09375 C 82.402344 307.964844 81.761719 307.804688 81.132812 307.613281 C 80.5 307.421875 79.882812 307.199219 79.273438 306.945312 C 78.664062 306.695312 78.066406 306.414062 77.488281 306.101562 C 76.90625 305.789062 76.339844 305.453125 75.792969 305.085938 C 75.246094 304.71875 74.714844 304.324219 74.207031 303.90625 C 73.695312 303.488281 73.210938 303.046875 72.742188 302.582031 C 72.277344 302.113281 71.835938 301.625 71.417969 301.117188 C 70.996094 300.609375 70.605469 300.078125 70.238281 299.53125 C 69.871094 298.984375 69.535156 298.417969 69.222656 297.835938 C 68.910156 297.253906 68.628906 296.660156 68.375 296.050781 C 68.125 295.441406 67.902344 294.824219 67.710938 294.191406 C 67.519531 293.5625 67.359375 292.921875 67.226562 292.277344 C 67.097656 291.628906 67 290.976562 66.9375 290.324219 C 66.871094 289.667969 66.835938 289.007812 66.835938 288.347656 L 66.835938 86.972656 C 66.835938 86.316406 66.871094 85.65625 66.9375 85 C 67 84.34375 67.097656 83.695312 67.226562 83.046875 C 67.359375 82.402344 67.519531 81.761719 67.710938 81.132812 C 67.902344 80.5 68.125 79.882812 68.375 79.273438 C 68.628906 78.664062 68.910156 78.066406 69.222656 77.488281 C 69.535156 76.90625 69.871094 76.339844 70.238281 75.792969 C 70.605469 75.246094 70.996094 74.714844 71.417969 74.207031 C 71.835938 73.695312 72.277344 73.210938 72.742188 72.742188 C 73.210938 72.277344 73.695312 71.835938 74.207031 71.417969 C 74.714844 70.996094 75.246094 70.605469 75.792969 70.238281 C 76.339844 69.871094 76.90625 69.535156 77.488281 69.222656 C 78.066406 68.910156 78.664062 68.628906 79.273438 68.375 C 79.882812 68.125 80.5 67.902344 81.132812 67.710938 C 81.761719 67.519531 82.402344 67.359375 83.046875 67.226562 C 83.695312 67.097656 84.34375 67 85 66.9375 C 85.65625 66.871094 86.316406 66.835938 86.972656 66.835938 L 288.347656 66.835938 C 289.007812 66.835938 289.667969 66.871094 290.324219 66.9375 C 290.976562 67 291.628906 67.097656 292.277344 67.226562 C 292.921875 67.359375 293.5625 67.519531 294.191406 67.710938 C 294.824219 67.902344 295.441406 68.125 296.050781 68.375 C 296.660156 68.628906 297.253906 68.910156 297.835938 69.222656 C 298.417969 69.535156 298.984375 69.871094 299.53125 70.238281 C 300.078125 70.605469 300.609375 70.996094 301.117188 71.417969 C 301.625 71.835938 302.113281 72.277344 302.582031 72.742188 C 303.046875 73.210938 303.488281 73.695312 303.90625 74.207031 C 304.324219 74.714844 304.71875 75.246094 305.085938 75.792969 C 305.453125 76.339844 305.789062 76.90625 306.101562 77.488281 C 306.414062 78.066406 306.695312 78.664062 306.945312 79.273438 C 307.199219 79.882812 307.421875 80.5 307.613281 81.132812 C 307.804688 81.761719 307.964844 82.402344 308.09375 83.046875 C 308.226562 83.695312 308.320312 84.34375 308.386719 85 C 308.453125 85.65625 308.484375 86.316406 308.488281 86.972656 Z M 308.488281 288.347656 " fill-opacity="1" fill-rule="nonzero"/></g><path fill="#000000" d="M 241.363281 140.675781 L 206.617188 140.675781 C 206.273438 139.699219 205.855469 138.757812 205.367188 137.851562 C 204.875 136.941406 204.320312 136.074219 203.695312 135.25 C 203.070312 134.425781 202.386719 133.65625 201.644531 132.9375 C 200.902344 132.21875 200.109375 131.5625 199.265625 130.964844 C 198.421875 130.371094 197.539062 129.84375 196.613281 129.382812 C 195.691406 128.921875 194.734375 128.535156 193.75 128.222656 C 192.765625 127.910156 191.761719 127.675781 190.742188 127.515625 C 189.722656 127.359375 188.695312 127.28125 187.660156 127.28125 C 186.628906 127.28125 185.601562 127.359375 184.582031 127.515625 C 183.558594 127.675781 182.558594 127.910156 181.574219 128.222656 C 180.589844 128.535156 179.632812 128.921875 178.710938 129.382812 C 177.785156 129.84375 176.898438 130.371094 176.054688 130.964844 C 175.210938 131.5625 174.417969 132.21875 173.675781 132.9375 C 172.933594 133.65625 172.253906 134.425781 171.628906 135.25 C 171.003906 136.074219 170.449219 136.941406 169.957031 137.851562 C 169.46875 138.757812 169.050781 139.699219 168.707031 140.675781 L 133.960938 140.675781 C 133.519531 140.675781 133.085938 140.71875 132.652344 140.804688 C 132.21875 140.890625 131.800781 141.015625 131.394531 141.183594 C 130.984375 141.355469 130.597656 141.5625 130.234375 141.804688 C 129.867188 142.050781 129.527344 142.328125 129.214844 142.640625 C 128.902344 142.953125 128.625 143.292969 128.378906 143.65625 C 128.136719 144.023438 127.929688 144.410156 127.761719 144.816406 C 127.589844 145.226562 127.464844 145.644531 127.378906 146.078125 C 127.292969 146.507812 127.25 146.945312 127.25 147.386719 C 127.25 147.828125 127.292969 148.265625 127.378906 148.695312 C 127.464844 149.128906 127.589844 149.546875 127.761719 149.957031 C 127.929688 150.363281 128.136719 150.75 128.378906 151.117188 C 128.625 151.484375 128.902344 151.820312 129.214844 152.132812 C 129.527344 152.445312 129.867188 152.722656 130.234375 152.96875 C 130.597656 153.214844 130.984375 153.417969 131.394531 153.589844 C 131.800781 153.757812 132.21875 153.882812 132.652344 153.96875 C 133.085938 154.054688 133.519531 154.097656 133.960938 154.097656 L 168.707031 154.097656 C 169.050781 155.074219 169.46875 156.015625 169.957031 156.925781 C 170.449219 157.832031 171.003906 158.699219 171.628906 159.523438 C 172.253906 160.347656 172.933594 161.117188 173.675781 161.835938 C 174.417969 162.554688 175.210938 163.210938 176.054688 163.808594 C 176.898438 164.402344 177.785156 164.929688 178.710938 165.390625 C 179.632812 165.851562 180.589844 166.238281 181.574219 166.550781 C 182.558594 166.863281 183.558594 167.097656 184.582031 167.257812 C 185.601562 167.414062 186.628906 167.492188 187.660156 167.492188 C 188.695312 167.492188 189.722656 167.414062 190.742188 167.257812 C 191.761719 167.097656 192.765625 166.863281 193.75 166.550781 C 194.734375 166.238281 195.691406 165.851562 196.613281 165.390625 C 197.539062 164.929688 198.421875 164.402344 199.265625 163.808594 C 200.109375 163.210938 200.902344 162.554688 201.644531 161.835938 C 202.386719 161.117188 203.070312 160.347656 203.695312 159.523438 C 204.320312 158.699219 204.875 157.832031 205.367188 156.925781 C 205.855469 156.015625 206.273438 155.074219 206.617188 154.097656 L 241.363281 154.097656 C 241.800781 154.097656 242.238281 154.054688 242.671875 153.96875 C 243.105469 153.882812 243.523438 153.757812 243.929688 153.589844 C 244.335938 153.417969 244.726562 153.214844 245.089844 152.96875 C 245.457031 152.722656 245.796875 152.445312 246.109375 152.132812 C 246.421875 151.820312 246.699219 151.484375 246.941406 151.117188 C 247.1875 150.75 247.394531 150.363281 247.5625 149.957031 C 247.730469 149.546875 247.859375 149.128906 247.945312 148.695312 C 248.03125 148.265625 248.074219 147.828125 248.074219 147.386719 C 248.074219 146.945312 248.03125 146.507812 247.945312 146.078125 C 247.859375 145.644531 247.730469 145.226562 247.5625 144.816406 C 247.394531 144.410156 247.1875 144.023438 246.941406 143.65625 C 246.699219 143.292969 246.421875 142.953125 246.109375 142.640625 C 245.796875 142.328125 245.457031 142.050781 245.089844 141.804688 C 244.726562 141.5625 244.335938 141.355469 243.929688 141.183594 C 243.523438 141.015625 243.105469 140.890625 242.671875 140.804688 C 242.238281 140.71875 241.800781 140.675781 241.363281 140.675781 Z M 187.660156 154.097656 C 187.222656 154.097656 186.785156 154.054688 186.351562 153.96875 C 185.921875 153.882812 185.5 153.757812 185.09375 153.589844 C 184.6875 153.417969 184.300781 153.214844 183.933594 152.96875 C 183.566406 152.722656 183.226562 152.445312 182.914062 152.132812 C 182.605469 151.820312 182.324219 151.484375 182.082031 151.117188 C 181.835938 150.75 181.628906 150.363281 181.460938 149.957031 C 181.292969 149.546875 181.164062 149.128906 181.078125 148.695312 C 180.992188 148.265625 180.949219 147.828125 180.949219 147.386719 C 180.949219 146.945312 180.992188 146.507812 181.078125 146.078125 C 181.164062 145.644531 181.292969 145.226562 181.460938 144.816406 C 181.628906 144.410156 181.835938 144.023438 182.082031 143.65625 C 182.324219 143.292969 182.605469 142.953125 182.914062 142.640625 C 183.226562 142.328125 183.566406 142.050781 183.933594 141.804688 C 184.300781 141.5625 184.6875 141.355469 185.09375 141.183594 C 185.5 141.015625 185.921875 140.890625 186.351562 140.804688 C 186.785156 140.71875 187.222656 140.675781 187.660156 140.675781 C 188.101562 140.675781 188.539062 140.71875 188.972656 140.804688 C 189.402344 140.890625 189.824219 141.015625 190.230469 141.183594 C 190.636719 141.355469 191.023438 141.5625 191.390625 141.804688 C 191.757812 142.050781 192.097656 142.328125 192.410156 142.640625 C 192.71875 142.953125 193 143.292969 193.242188 143.65625 C 193.488281 144.023438 193.695312 144.410156 193.863281 144.816406 C 194.03125 145.226562 194.160156 145.644531 194.246094 146.078125 C 194.332031 146.507812 194.375 146.945312 194.375 147.386719 C 194.375 147.828125 194.332031 148.265625 194.246094 148.695312 C 194.160156 149.128906 194.03125 149.546875 193.863281 149.957031 C 193.695312 150.363281 193.488281 150.75 193.242188 151.117188 C 193 151.484375 192.71875 151.820312 192.410156 152.132812 C 192.097656 152.445312 191.757812 152.722656 191.390625 152.96875 C 191.023438 153.214844 190.636719 153.417969 190.230469 153.589844 C 189.824219 153.757812 189.402344 153.882812 188.972656 153.96875 C 188.539062 154.054688 188.101562 154.097656 187.660156 154.097656 Z M 187.660156 154.097656 " fill-opacity="1" fill-rule="nonzero"/><path fill="#000000" d="M 241.363281 221.222656 L 206.617188 221.222656 C 206.273438 220.25 205.855469 219.308594 205.367188 218.398438 C 204.875 217.492188 204.320312 216.625 203.695312 215.800781 C 203.070312 214.976562 202.386719 214.207031 201.644531 213.488281 C 200.902344 212.769531 200.109375 212.113281 199.265625 211.515625 C 198.421875 210.921875 197.539062 210.390625 196.613281 209.933594 C 195.691406 209.472656 194.734375 209.085938 193.75 208.773438 C 192.765625 208.460938 191.761719 208.226562 190.742188 208.066406 C 189.722656 207.910156 188.695312 207.828125 187.660156 207.828125 C 186.628906 207.828125 185.601562 207.910156 184.582031 208.066406 C 183.558594 208.226562 182.558594 208.460938 181.574219 208.773438 C 180.589844 209.085938 179.632812 209.472656 178.710938 209.933594 C 177.785156 210.390625 176.898438 210.921875 176.054688 211.515625 C 175.210938 212.113281 174.417969 212.769531 173.675781 213.488281 C 172.933594 214.207031 172.253906 214.976562 171.628906 215.800781 C 171.003906 216.625 170.449219 217.492188 169.957031 218.398438 C 169.46875 219.308594 169.050781 220.25 168.707031 221.222656 L 133.960938 221.222656 C 133.519531 221.222656 133.085938 221.265625 132.652344 221.351562 C 132.21875 221.4375 131.800781 221.566406 131.394531 221.734375 C 130.984375 221.902344 130.597656 222.109375 130.234375 222.355469 C 129.867188 222.601562 129.527344 222.878906 129.214844 223.191406 C 128.902344 223.503906 128.625 223.839844 128.378906 224.207031 C 128.136719 224.574219 127.929688 224.960938 127.761719 225.367188 C 127.589844 225.773438 127.464844 226.195312 127.378906 226.628906 C 127.292969 227.058594 127.25 227.496094 127.25 227.9375 C 127.25 228.378906 127.292969 228.8125 127.378906 229.246094 C 127.464844 229.679688 127.589844 230.097656 127.761719 230.503906 C 127.929688 230.914062 128.136719 231.300781 128.378906 231.667969 C 128.625 232.03125 128.902344 232.371094 129.214844 232.683594 C 129.527344 232.996094 129.867188 233.273438 130.234375 233.519531 C 130.597656 233.761719 130.984375 233.96875 131.394531 234.136719 C 131.800781 234.308594 132.21875 234.433594 132.652344 234.519531 C 133.085938 234.605469 133.519531 234.648438 133.960938 234.648438 L 168.707031 234.648438 C 169.050781 235.621094 169.46875 236.566406 169.957031 237.472656 C 170.449219 238.382812 171.003906 239.25 171.628906 240.074219 C 172.253906 240.898438 172.933594 241.667969 173.675781 242.386719 C 174.417969 243.105469 175.210938 243.761719 176.054688 244.359375 C 176.898438 244.953125 177.785156 245.480469 178.710938 245.941406 C 179.632812 246.402344 180.589844 246.789062 181.574219 247.101562 C 182.558594 247.414062 183.558594 247.648438 184.582031 247.808594 C 185.601562 247.964844 186.628906 248.042969 187.660156 248.042969 C 188.695312 248.042969 189.722656 247.964844 190.742188 247.808594 C 191.761719 247.648438 192.765625 247.414062 193.75 247.101562 C 194.734375 246.789062 195.691406 246.402344 196.613281 245.941406 C 197.539062 245.480469 198.421875 244.953125 199.265625 244.359375 C 200.109375 243.761719 200.902344 243.105469 201.644531 242.386719 C 202.386719 241.667969 203.070312 240.898438 203.695312 240.074219 C 204.320312 239.25 204.875 238.382812 205.367188 237.472656 C 205.855469 236.566406 206.273438 235.621094 206.617188 234.648438 L 241.363281 234.648438 C 241.800781 234.648438 242.238281 234.605469 242.671875 234.519531 C 243.105469 234.433594 243.523438 234.308594 243.929688 234.136719 C 244.335938 233.96875 244.726562 233.761719 245.089844 233.519531 C 245.457031 233.273438 245.796875 232.996094 246.109375 232.683594 C 246.421875 232.371094 246.699219 232.03125 246.941406 231.667969 C 247.1875 231.300781 247.394531 230.914062 247.5625 230.503906 C 247.730469 230.097656 247.859375 229.679688 247.945312 229.246094 C 248.03125 228.8125 248.074219 228.378906 248.074219 227.9375 C 248.074219 227.496094 248.03125 227.058594 247.945312 226.628906 C 247.859375 226.195312 247.730469 225.773438 247.5625 225.367188 C 247.394531 224.960938 247.1875 224.574219 246.941406 224.207031 C 246.699219 223.839844 246.421875 223.503906 246.109375 223.191406 C 245.796875 222.878906 245.457031 222.601562 245.089844 222.355469 C 244.726562 222.109375 244.335938 221.902344 243.929688 221.734375 C 243.523438 221.566406 243.105469 221.4375 242.671875 221.351562 C 242.238281 221.265625 241.800781 221.222656 241.363281 221.222656 Z M 187.660156 234.648438 C 187.222656 234.648438 186.785156 234.605469 186.351562 234.519531 C 185.921875 234.433594 185.5 234.308594 185.09375 234.136719 C 184.6875 233.96875 184.300781 233.761719 183.933594 233.519531 C 183.566406 233.273438 183.226562 232.996094 182.914062 232.683594 C 182.605469 232.371094 182.324219 232.03125 182.082031 231.667969 C 181.835938 231.300781 181.628906 230.914062 181.460938 230.503906 C 181.292969 230.097656 181.164062 229.679688 181.078125 229.246094 C 180.992188 228.8125 180.949219 228.378906 180.949219 227.9375 C 180.949219 227.496094 180.992188 227.058594 181.078125 226.628906 C 181.164062 226.195312 181.292969 225.773438 181.460938 225.367188 C 181.628906 224.960938 181.835938 224.574219 182.082031 224.207031 C 182.324219 223.839844 182.605469 223.503906 182.914062 223.191406 C 183.226562 222.878906 183.566406 222.601562 183.933594 222.355469 C 184.300781 222.109375 184.6875 221.902344 185.09375 221.734375 C 185.5 221.566406 185.921875 221.4375 186.351562 221.351562 C 186.785156 221.265625 187.222656 221.222656 187.660156 221.222656 C 188.101562 221.222656 188.539062 221.265625 188.972656 221.351562 C 189.402344 221.4375 189.824219 221.566406 190.230469 221.734375 C 190.636719 221.902344 191.023438 222.109375 191.390625 222.355469 C 191.757812 222.601562 192.097656 222.878906 192.410156 223.191406 C 192.71875 223.503906 193 223.839844 193.242188 224.207031 C 193.488281 224.574219 193.695312 224.960938 193.863281 225.367188 C 194.03125 225.773438 194.160156 226.195312 194.246094 226.628906 C 194.332031 227.058594 194.375 227.496094 194.375 227.9375 C 194.375 228.378906 194.332031 228.8125 194.246094 229.246094 C 194.160156 229.679688 194.03125 230.097656 193.863281 230.503906 C 193.695312 230.914062 193.488281 231.300781 193.242188 231.667969 C 193 232.03125 192.71875 232.371094 192.410156 232.683594 C 192.097656 232.996094 191.757812 233.273438 191.390625 233.519531 C 191.023438 233.761719 190.636719 233.96875 190.230469 234.136719 C 189.824219 234.308594 189.402344 234.433594 188.972656 234.519531 C 188.539062 234.605469 188.101562 234.648438 187.660156 234.648438 Z M 187.660156 234.648438 " fill-opacity="1" fill-rule="nonzero"/><path fill="#000000" d="M 227.9375 167.523438 C 226.902344 167.527344 225.875 167.609375 224.855469 167.769531 C 223.835938 167.929688 222.832031 168.167969 221.847656 168.480469 C 220.863281 168.796875 219.910156 169.183594 218.984375 169.644531 C 218.058594 170.105469 217.175781 170.636719 216.332031 171.234375 C 215.488281 171.832031 214.695312 172.488281 213.953125 173.207031 C 213.210938 173.925781 212.527344 174.699219 211.90625 175.523438 C 211.28125 176.347656 210.722656 177.214844 210.234375 178.125 C 209.742188 179.035156 209.328125 179.976562 208.980469 180.949219 L 133.960938 180.949219 C 133.519531 180.949219 133.085938 180.992188 132.652344 181.078125 C 132.21875 181.164062 131.800781 181.292969 131.394531 181.460938 C 130.984375 181.628906 130.597656 181.835938 130.234375 182.082031 C 129.867188 182.324219 129.527344 182.605469 129.214844 182.914062 C 128.902344 183.226562 128.625 183.566406 128.378906 183.933594 C 128.136719 184.300781 127.929688 184.6875 127.761719 185.09375 C 127.589844 185.5 127.464844 185.921875 127.378906 186.351562 C 127.292969 186.785156 127.25 187.222656 127.25 187.660156 C 127.25 188.101562 127.292969 188.539062 127.378906 188.972656 C 127.464844 189.402344 127.589844 189.824219 127.761719 190.230469 C 127.929688 190.636719 128.136719 191.023438 128.378906 191.390625 C 128.625 191.757812 128.902344 192.097656 129.214844 192.410156 C 129.527344 192.71875 129.867188 193 130.234375 193.242188 C 130.597656 193.488281 130.984375 193.695312 131.394531 193.863281 C 131.800781 194.03125 132.21875 194.160156 132.652344 194.246094 C 133.085938 194.332031 133.519531 194.375 133.960938 194.375 L 208.980469 194.375 C 209.390625 195.53125 209.898438 196.640625 210.511719 197.703125 C 211.125 198.769531 211.828125 199.765625 212.621094 200.703125 C 213.414062 201.636719 214.289062 202.492188 215.238281 203.265625 C 216.1875 204.042969 217.203125 204.726562 218.277344 205.316406 C 219.351562 205.90625 220.472656 206.394531 221.636719 206.777344 C 222.800781 207.164062 223.992188 207.441406 225.207031 207.609375 C 226.421875 207.777344 227.644531 207.835938 228.867188 207.777344 C 230.09375 207.722656 231.304688 207.558594 232.5 207.28125 C 233.695312 207.007812 234.855469 206.625 235.980469 206.136719 C 237.105469 205.648438 238.179688 205.0625 239.195312 204.378906 C 240.214844 203.695312 241.164062 202.921875 242.039062 202.066406 C 242.917969 201.207031 243.710938 200.277344 244.417969 199.277344 C 245.125 198.273438 245.734375 197.214844 246.25 196.101562 C 246.765625 194.988281 247.171875 193.835938 247.476562 192.648438 C 247.78125 191.460938 247.972656 190.253906 248.058594 189.03125 C 248.140625 187.804688 248.113281 186.585938 247.972656 185.367188 C 247.832031 184.148438 247.582031 182.949219 247.226562 181.777344 C 246.867188 180.605469 246.40625 179.472656 245.839844 178.386719 C 245.273438 177.296875 244.617188 176.265625 243.863281 175.300781 C 243.109375 174.332031 242.273438 173.4375 241.359375 172.621094 C 240.441406 171.808594 239.460938 171.082031 238.410156 170.445312 C 237.363281 169.808594 236.265625 169.273438 235.117188 168.835938 C 233.972656 168.402344 232.792969 168.074219 231.585938 167.851562 C 230.378906 167.632812 229.164062 167.523438 227.9375 167.523438 Z M 227.9375 194.375 C 227.496094 194.375 227.058594 194.332031 226.628906 194.246094 C 226.195312 194.160156 225.773438 194.03125 225.367188 193.863281 C 224.960938 193.695312 224.574219 193.488281 224.207031 193.242188 C 223.839844 193 223.503906 192.71875 223.191406 192.410156 C 222.878906 192.097656 222.601562 191.757812 222.355469 191.390625 C 222.109375 191.023438 221.902344 190.636719 221.734375 190.230469 C 221.566406 189.824219 221.4375 189.402344 221.351562 188.972656 C 221.265625 188.539062 221.222656 188.101562 221.222656 187.660156 C 221.222656 187.222656 221.265625 186.785156 221.351562 186.351562 C 221.4375 185.921875 221.566406 185.5 221.734375 185.09375 C 221.902344 184.6875 222.109375 184.300781 222.355469 183.933594 C 222.601562 183.566406 222.878906 183.226562 223.191406 182.914062 C 223.503906 182.605469 223.839844 182.324219 224.207031 182.082031 C 224.574219 181.835938 224.960938 181.628906 225.367188 181.460938 C 225.773438 181.292969 226.195312 181.164062 226.628906 181.078125 C 227.058594 180.992188 227.496094 180.949219 227.9375 180.949219 C 228.378906 180.949219 228.8125 180.992188 229.246094 181.078125 C 229.679688 181.164062 230.097656 181.292969 230.503906 181.460938 C 230.914062 181.628906 231.300781 181.835938 231.667969 182.082031 C 232.03125 182.324219 232.371094 182.605469 232.683594 182.914062 C 232.996094 183.226562 233.273438 183.566406 233.519531 183.933594 C 233.761719 184.300781 233.96875 184.6875 234.136719 185.09375 C 234.308594 185.5 234.433594 185.921875 234.519531 186.351562 C 234.605469 186.785156 234.648438 187.222656 234.648438 187.660156 C 234.648438 188.101562 234.605469 188.539062 234.519531 188.972656 C 234.433594 189.402344 234.308594 189.824219 234.136719 190.230469 C 233.96875 190.636719 233.761719 191.023438 233.519531 191.390625 C 233.273438 191.757812 232.996094 192.097656 232.683594 192.410156 C 232.371094 192.71875 232.03125 193 231.667969 193.242188 C 231.300781 193.488281 230.914062 193.695312 230.503906 193.863281 C 230.097656 194.03125 229.679688 194.160156 229.246094 194.246094 C 228.8125 194.332031 228.378906 194.375 227.9375 194.375 Z M 227.9375 194.375 " fill-opacity="1" fill-rule="nonzero"/><g clip-path="url(#f75a95920b)"><path fill="#ffffff" d="M 112.5 116.363281 L 272.257812 116.363281 L 272.257812 255 L 112.5 255 Z M 112.5 116.363281 " fill-opacity="1" fill-rule="nonzero"/></g><g clip-path="url(#a48ad81259)"><path fill="#5271ff" d="M 269.882812 134.53125 L 163.121094 134.53125 C 162.800781 133.28125 162.382812 132.0625 161.859375 130.878906 C 161.339844 129.695312 160.726562 128.5625 160.015625 127.480469 C 159.308594 126.398438 158.515625 125.382812 157.640625 124.429688 C 156.765625 123.480469 155.816406 122.609375 154.792969 121.816406 C 153.773438 121.023438 152.695312 120.316406 151.558594 119.703125 C 150.417969 119.085938 149.238281 118.570312 148.015625 118.152344 C 146.792969 117.730469 145.542969 117.414062 144.269531 117.203125 C 142.992188 116.992188 141.710938 116.882812 140.417969 116.882812 C 139.125 116.882812 137.839844 116.992188 136.5625 117.203125 C 135.289062 117.414062 134.039062 117.730469 132.816406 118.152344 C 131.59375 118.570312 130.414062 119.085938 129.277344 119.703125 C 128.136719 120.316406 127.058594 121.023438 126.039062 121.816406 C 125.015625 122.609375 124.070312 123.480469 123.191406 124.429688 C 122.316406 125.382812 121.523438 126.398438 120.816406 127.480469 C 120.105469 128.5625 119.492188 129.695312 118.972656 130.878906 C 118.453125 132.0625 118.03125 133.28125 117.714844 134.53125 L 105.109375 134.53125 C 104.722656 134.53125 104.339844 134.570312 103.960938 134.644531 C 103.582031 134.722656 103.210938 134.832031 102.855469 134.980469 C 102.5 135.128906 102.160156 135.308594 101.839844 135.523438 C 101.515625 135.738281 101.21875 135.984375 100.945312 136.257812 C 100.671875 136.53125 100.429688 136.828125 100.214844 137.148438 C 100 137.46875 99.820312 137.808594 99.671875 138.164062 C 99.523438 138.523438 99.410156 138.890625 99.335938 139.269531 C 99.261719 139.648438 99.222656 140.03125 99.222656 140.417969 C 99.222656 140.804688 99.261719 141.1875 99.335938 141.566406 C 99.410156 141.945312 99.523438 142.3125 99.671875 142.667969 C 99.820312 143.027344 100 143.367188 100.214844 143.6875 C 100.429688 144.007812 100.671875 144.304688 100.945312 144.578125 C 101.21875 144.851562 101.515625 145.097656 101.839844 145.308594 C 102.160156 145.523438 102.5 145.707031 102.855469 145.855469 C 103.210938 146.003906 103.582031 146.113281 103.960938 146.1875 C 104.339844 146.265625 104.722656 146.300781 105.109375 146.300781 L 117.714844 146.300781 C 118.03125 147.554688 118.453125 148.773438 118.972656 149.957031 C 119.492188 151.140625 120.105469 152.273438 120.816406 153.355469 C 121.523438 154.4375 122.316406 155.453125 123.191406 156.402344 C 124.070312 157.355469 125.015625 158.226562 126.039062 159.019531 C 127.058594 159.8125 128.136719 160.519531 129.277344 161.132812 C 130.414062 161.746094 131.59375 162.265625 132.816406 162.683594 C 134.039062 163.101562 135.289062 163.417969 136.5625 163.632812 C 137.839844 163.84375 139.125 163.949219 140.417969 163.949219 C 141.710938 163.949219 142.992188 163.84375 144.269531 163.632812 C 145.542969 163.417969 146.792969 163.101562 148.015625 162.683594 C 149.238281 162.265625 150.417969 161.746094 151.558594 161.132812 C 152.695312 160.519531 153.773438 159.8125 154.792969 159.019531 C 155.816406 158.226562 156.765625 157.355469 157.640625 156.402344 C 158.515625 155.453125 159.308594 154.4375 160.015625 153.355469 C 160.726562 152.273438 161.339844 151.140625 161.859375 149.957031 C 162.382812 148.773438 162.800781 147.554688 163.121094 146.300781 L 269.882812 146.300781 C 270.269531 146.300781 270.648438 146.265625 271.027344 146.1875 C 271.410156 146.113281 271.777344 146.003906 272.132812 145.855469 C 272.488281 145.707031 272.828125 145.523438 273.152344 145.308594 C 273.472656 145.097656 273.769531 144.851562 274.042969 144.578125 C 274.316406 144.304688 274.558594 144.007812 274.773438 143.6875 C 274.988281 143.367188 275.171875 143.027344 275.316406 142.667969 C 275.464844 142.3125 275.578125 141.945312 275.652344 141.566406 C 275.726562 141.1875 275.765625 140.804688 275.765625 140.417969 C 275.765625 140.03125 275.726562 139.648438 275.652344 139.269531 C 275.578125 138.890625 275.464844 138.523438 275.316406 138.164062 C 275.171875 137.808594 274.988281 137.46875 274.773438 137.148438 C 274.558594 136.828125 274.316406 136.53125 274.042969 136.257812 C 273.769531 135.984375 273.472656 135.738281 273.152344 135.523438 C 272.828125 135.308594 272.488281 135.128906 272.132812 134.980469 C 271.777344 134.832031 271.410156 134.722656 271.027344 134.644531 C 270.648438 134.570312 270.269531 134.53125 269.882812 134.53125 Z M 140.417969 152.1875 C 139.644531 152.1875 138.878906 152.113281 138.121094 151.960938 C 137.363281 151.808594 136.625 151.585938 135.914062 151.292969 C 135.199219 150.996094 134.519531 150.632812 133.878906 150.203125 C 133.234375 149.773438 132.640625 149.285156 132.09375 148.738281 C 131.546875 148.191406 131.058594 147.597656 130.628906 146.957031 C 130.199219 146.3125 129.839844 145.636719 129.542969 144.921875 C 129.246094 144.207031 129.023438 143.472656 128.871094 142.714844 C 128.722656 141.957031 128.648438 141.191406 128.648438 140.417969 C 128.648438 139.644531 128.722656 138.878906 128.871094 138.121094 C 129.023438 137.363281 129.246094 136.628906 129.542969 135.914062 C 129.839844 135.199219 130.199219 134.519531 130.628906 133.878906 C 131.058594 133.234375 131.546875 132.640625 132.09375 132.09375 C 132.640625 131.546875 133.234375 131.0625 133.878906 130.632812 C 134.519531 130.203125 135.199219 129.839844 135.914062 129.542969 C 136.625 129.25 137.363281 129.023438 138.121094 128.875 C 138.878906 128.722656 139.644531 128.648438 140.417969 128.648438 C 141.1875 128.648438 141.953125 128.722656 142.710938 128.875 C 143.46875 129.023438 144.207031 129.25 144.921875 129.542969 C 145.632812 129.839844 146.3125 130.203125 146.957031 130.632812 C 147.597656 131.0625 148.191406 131.546875 148.738281 132.09375 C 149.285156 132.640625 149.773438 133.234375 150.203125 133.878906 C 150.632812 134.519531 150.996094 135.199219 151.289062 135.914062 C 151.585938 136.628906 151.808594 137.363281 151.960938 138.121094 C 152.109375 138.878906 152.1875 139.644531 152.1875 140.417969 C 152.1875 141.191406 152.109375 141.957031 151.960938 142.714844 C 151.808594 143.472656 151.585938 144.207031 151.289062 144.921875 C 150.996094 145.636719 150.632812 146.3125 150.203125 146.957031 C 149.773438 147.597656 149.285156 148.191406 148.738281 148.738281 C 148.191406 149.285156 147.597656 149.773438 146.957031 150.203125 C 146.3125 150.632812 145.632812 150.996094 144.921875 151.292969 C 144.207031 151.585938 143.46875 151.808594 142.710938 151.960938 C 141.953125 152.113281 141.1875 152.1875 140.417969 152.1875 Z M 140.417969 152.1875 " fill-opacity="1" fill-rule="nonzero"/></g><g clip-path="url(#8668510e12)"><path fill="#5271ff" d="M 269.882812 228.6875 L 192.542969 228.6875 C 192.226562 227.4375 191.804688 226.21875 191.285156 225.035156 C 190.765625 223.851562 190.148438 222.71875 189.441406 221.636719 C 188.734375 220.554688 187.941406 219.539062 187.0625 218.585938 C 186.1875 217.636719 185.238281 216.765625 184.21875 215.972656 C 183.199219 215.179688 182.117188 214.472656 180.980469 213.859375 C 179.84375 213.242188 178.664062 212.726562 177.441406 212.308594 C 176.21875 211.886719 174.96875 211.570312 173.691406 211.359375 C 172.417969 211.144531 171.132812 211.039062 169.839844 211.039062 C 168.546875 211.039062 167.261719 211.144531 165.988281 211.359375 C 164.710938 211.570312 163.464844 211.886719 162.238281 212.308594 C 161.015625 212.726562 159.835938 213.242188 158.699219 213.859375 C 157.5625 214.472656 156.484375 215.179688 155.460938 215.972656 C 154.441406 216.765625 153.492188 217.636719 152.617188 218.585938 C 151.738281 219.539062 150.949219 220.554688 150.238281 221.636719 C 149.53125 222.71875 148.917969 223.851562 148.394531 225.035156 C 147.875 226.21875 147.457031 227.4375 147.136719 228.6875 L 105.109375 228.6875 C 104.722656 228.6875 104.339844 228.726562 103.960938 228.800781 C 103.582031 228.878906 103.210938 228.988281 102.855469 229.136719 C 102.5 229.285156 102.160156 229.464844 101.839844 229.679688 C 101.515625 229.894531 101.21875 230.140625 100.945312 230.414062 C 100.671875 230.6875 100.429688 230.984375 100.214844 231.304688 C 100 231.625 99.820312 231.964844 99.671875 232.320312 C 99.523438 232.679688 99.410156 233.046875 99.335938 233.425781 C 99.261719 233.804688 99.222656 234.1875 99.222656 234.574219 C 99.222656 234.960938 99.261719 235.34375 99.335938 235.722656 C 99.410156 236.101562 99.523438 236.46875 99.671875 236.824219 C 99.820312 237.183594 100 237.523438 100.214844 237.84375 C 100.429688 238.164062 100.671875 238.460938 100.945312 238.734375 C 101.21875 239.007812 101.515625 239.253906 101.839844 239.464844 C 102.160156 239.679688 102.5 239.863281 102.855469 240.011719 C 103.210938 240.160156 103.582031 240.269531 103.960938 240.34375 C 104.339844 240.421875 104.722656 240.457031 105.109375 240.457031 L 147.136719 240.457031 C 147.457031 241.710938 147.875 242.929688 148.394531 244.113281 C 148.917969 245.296875 149.53125 246.429688 150.238281 247.511719 C 150.949219 248.59375 151.738281 249.609375 152.617188 250.558594 C 153.492188 251.511719 154.441406 252.382812 155.460938 253.175781 C 156.484375 253.96875 157.5625 254.675781 158.699219 255.289062 C 159.835938 255.902344 161.015625 256.421875 162.238281 256.839844 C 163.464844 257.257812 164.710938 257.574219 165.988281 257.789062 C 167.261719 258 168.546875 258.105469 169.839844 258.105469 C 171.132812 258.105469 172.417969 258 173.691406 257.789062 C 174.96875 257.574219 176.21875 257.257812 177.441406 256.839844 C 178.664062 256.421875 179.84375 255.902344 180.980469 255.289062 C 182.117188 254.675781 183.199219 253.96875 184.21875 253.175781 C 185.238281 252.382812 186.1875 251.511719 187.0625 250.558594 C 187.941406 249.609375 188.734375 248.59375 189.441406 247.511719 C 190.148438 246.429688 190.765625 245.296875 191.285156 244.113281 C 191.804688 242.929688 192.226562 241.710938 192.542969 240.457031 L 269.882812 240.457031 C 270.269531 240.457031 270.648438 240.421875 271.027344 240.34375 C 271.410156 240.269531 271.777344 240.160156 272.132812 240.011719 C 272.488281 239.863281 272.828125 239.679688 273.152344 239.464844 C 273.472656 239.253906 273.769531 239.007812 274.042969 238.734375 C 274.316406 238.460938 274.558594 238.164062 274.773438 237.84375 C 274.988281 237.523438 275.171875 237.183594 275.316406 236.824219 C 275.464844 236.46875 275.578125 236.101562 275.652344 235.722656 C 275.726562 235.34375 275.765625 234.960938 275.765625 234.574219 C 275.765625 234.1875 275.726562 233.804688 275.652344 233.425781 C 275.578125 233.046875 275.464844 232.679688 275.316406 232.320312 C 275.171875 231.964844 274.988281 231.625 274.773438 231.304688 C 274.558594 230.984375 274.316406 230.6875 274.042969 230.414062 C 273.769531 230.140625 273.472656 229.894531 273.152344 229.679688 C 272.828125 229.464844 272.488281 229.285156 272.132812 229.136719 C 271.777344 228.988281 271.410156 228.878906 271.027344 228.800781 C 270.648438 228.726562 270.269531 228.6875 269.882812 228.6875 Z M 169.839844 246.34375 C 169.066406 246.34375 168.300781 246.269531 167.542969 246.117188 C 166.785156 245.964844 166.050781 245.742188 165.335938 245.449219 C 164.621094 245.152344 163.945312 244.789062 163.300781 244.359375 C 162.660156 243.929688 162.0625 243.441406 161.519531 242.894531 C 160.972656 242.347656 160.484375 241.753906 160.054688 241.113281 C 159.625 240.46875 159.261719 239.792969 158.964844 239.078125 C 158.671875 238.363281 158.449219 237.628906 158.296875 236.871094 C 158.144531 236.113281 158.070312 235.347656 158.070312 234.574219 C 158.070312 233.800781 158.144531 233.035156 158.296875 232.277344 C 158.449219 231.519531 158.671875 230.785156 158.964844 230.070312 C 159.261719 229.355469 159.625 228.675781 160.054688 228.035156 C 160.484375 227.390625 160.972656 226.796875 161.519531 226.25 C 162.0625 225.703125 162.660156 225.21875 163.300781 224.789062 C 163.945312 224.359375 164.621094 223.996094 165.335938 223.699219 C 166.050781 223.40625 166.785156 223.179688 167.542969 223.03125 C 168.300781 222.878906 169.066406 222.804688 169.839844 222.804688 C 170.613281 222.804688 171.378906 222.878906 172.136719 223.03125 C 172.894531 223.179688 173.628906 223.40625 174.34375 223.699219 C 175.058594 223.996094 175.738281 224.359375 176.378906 224.789062 C 177.023438 225.21875 177.617188 225.703125 178.164062 226.25 C 178.710938 226.796875 179.195312 227.390625 179.625 228.035156 C 180.054688 228.675781 180.417969 229.355469 180.714844 230.070312 C 181.007812 230.785156 181.234375 231.519531 181.382812 232.277344 C 181.535156 233.035156 181.609375 233.800781 181.609375 234.574219 C 181.609375 235.347656 181.535156 236.113281 181.382812 236.871094 C 181.234375 237.628906 181.007812 238.363281 180.714844 239.078125 C 180.417969 239.792969 180.054688 240.46875 179.625 241.113281 C 179.195312 241.753906 178.710938 242.347656 178.164062 242.894531 C 177.617188 243.441406 177.023438 243.929688 176.378906 244.359375 C 175.738281 244.789062 175.058594 245.152344 174.34375 245.449219 C 173.628906 245.742188 172.894531 245.964844 172.136719 246.117188 C 171.378906 246.269531 170.613281 246.34375 169.839844 246.34375 Z M 169.839844 246.34375 " fill-opacity="1" fill-rule="nonzero"/></g><g clip-path="url(#047c13a920)"><path fill="#5271ff" d="M 269.882812 181.609375 L 263.160156 181.609375 C 262.84375 180.359375 262.421875 179.140625 261.902344 177.957031 C 261.382812 176.773438 260.765625 175.640625 260.058594 174.558594 C 259.351562 173.476562 258.558594 172.460938 257.679688 171.507812 C 256.804688 170.558594 255.855469 169.6875 254.835938 168.894531 C 253.816406 168.101562 252.734375 167.394531 251.597656 166.78125 C 250.460938 166.164062 249.28125 165.648438 248.058594 165.230469 C 246.835938 164.808594 245.585938 164.492188 244.308594 164.28125 C 243.035156 164.070312 241.75 163.960938 240.457031 163.960938 C 239.164062 163.960938 237.878906 164.070312 236.605469 164.28125 C 235.328125 164.492188 234.082031 164.808594 232.855469 165.230469 C 231.632812 165.648438 230.453125 166.164062 229.316406 166.78125 C 228.179688 167.394531 227.101562 168.101562 226.078125 168.894531 C 225.058594 169.6875 224.109375 170.558594 223.234375 171.507812 C 222.355469 172.460938 221.566406 173.476562 220.855469 174.558594 C 220.148438 175.640625 219.535156 176.773438 219.011719 177.957031 C 218.492188 179.140625 218.074219 180.359375 217.753906 181.609375 L 105.109375 181.609375 C 104.722656 181.609375 104.339844 181.648438 103.960938 181.722656 C 103.582031 181.800781 103.210938 181.910156 102.855469 182.058594 C 102.5 182.207031 102.160156 182.386719 101.839844 182.601562 C 101.515625 182.816406 101.21875 183.0625 100.945312 183.335938 C 100.671875 183.609375 100.429688 183.90625 100.214844 184.226562 C 100 184.546875 99.820312 184.886719 99.671875 185.242188 C 99.523438 185.601562 99.410156 185.96875 99.335938 186.347656 C 99.261719 186.726562 99.222656 187.109375 99.222656 187.496094 C 99.222656 187.882812 99.261719 188.265625 99.335938 188.644531 C 99.410156 189.023438 99.523438 189.390625 99.671875 189.746094 C 99.820312 190.105469 100 190.445312 100.214844 190.765625 C 100.429688 191.085938 100.671875 191.382812 100.945312 191.65625 C 101.21875 191.929688 101.515625 192.175781 101.839844 192.386719 C 102.160156 192.601562 102.5 192.785156 102.855469 192.933594 C 103.210938 193.082031 103.582031 193.191406 103.960938 193.265625 C 104.339844 193.34375 104.722656 193.378906 105.109375 193.378906 L 217.753906 193.378906 C 218.074219 194.632812 218.492188 195.851562 219.011719 197.035156 C 219.535156 198.21875 220.148438 199.351562 220.855469 200.433594 C 221.566406 201.515625 222.355469 202.53125 223.234375 203.480469 C 224.109375 204.433594 225.058594 205.304688 226.078125 206.097656 C 227.101562 206.890625 228.179688 207.597656 229.316406 208.210938 C 230.453125 208.824219 231.632812 209.34375 232.855469 209.761719 C 234.082031 210.179688 235.328125 210.496094 236.605469 210.710938 C 237.878906 210.921875 239.164062 211.027344 240.457031 211.027344 C 241.75 211.027344 243.035156 210.921875 244.308594 210.710938 C 245.585938 210.496094 246.835938 210.179688 248.058594 209.761719 C 249.28125 209.34375 250.460938 208.824219 251.597656 208.210938 C 252.734375 207.597656 253.816406 206.890625 254.835938 206.097656 C 255.855469 205.304688 256.804688 204.433594 257.679688 203.480469 C 258.558594 202.53125 259.351562 201.515625 260.058594 200.433594 C 260.765625 199.351562 261.382812 198.21875 261.902344 197.035156 C 262.421875 195.851562 262.84375 194.632812 263.160156 193.378906 L 269.882812 193.378906 C 270.269531 193.378906 270.648438 193.34375 271.027344 193.265625 C 271.410156 193.191406 271.777344 193.082031 272.132812 192.933594 C 272.488281 192.785156 272.828125 192.601562 273.152344 192.386719 C 273.472656 192.175781 273.769531 191.929688 274.042969 191.65625 C 274.316406 191.382812 274.558594 191.085938 274.773438 190.765625 C 274.988281 190.445312 275.171875 190.105469 275.316406 189.746094 C 275.464844 189.390625 275.578125 189.023438 275.652344 188.644531 C 275.726562 188.265625 275.765625 187.882812 275.765625 187.496094 C 275.765625 187.109375 275.726562 186.726562 275.652344 186.347656 C 275.578125 185.96875 275.464844 185.601562 275.316406 185.242188 C 275.171875 184.886719 274.988281 184.546875 274.773438 184.226562 C 274.558594 183.90625 274.316406 183.609375 274.042969 183.335938 C 273.769531 183.0625 273.472656 182.816406 273.152344 182.601562 C 272.828125 182.386719 272.488281 182.207031 272.132812 182.058594 C 271.777344 181.910156 271.410156 181.800781 271.027344 181.722656 C 270.648438 181.648438 270.269531 181.609375 269.882812 181.609375 Z M 240.457031 199.265625 C 239.683594 199.265625 238.917969 199.191406 238.160156 199.039062 C 237.402344 198.886719 236.667969 198.664062 235.953125 198.371094 C 235.238281 198.074219 234.5625 197.710938 233.917969 197.28125 C 233.277344 196.851562 232.679688 196.363281 232.136719 195.816406 C 231.589844 195.269531 231.101562 194.675781 230.671875 194.035156 C 230.242188 193.390625 229.878906 192.714844 229.582031 192 C 229.289062 191.285156 229.066406 190.550781 228.914062 189.792969 C 228.761719 189.035156 228.6875 188.269531 228.6875 187.496094 C 228.6875 186.722656 228.761719 185.957031 228.914062 185.199219 C 229.066406 184.441406 229.289062 183.707031 229.582031 182.992188 C 229.878906 182.277344 230.242188 181.597656 230.671875 180.957031 C 231.101562 180.3125 231.589844 179.71875 232.136719 179.171875 C 232.679688 178.625 233.277344 178.140625 233.917969 177.710938 C 234.5625 177.28125 235.238281 176.917969 235.953125 176.621094 C 236.667969 176.328125 237.402344 176.101562 238.160156 175.953125 C 238.917969 175.800781 239.683594 175.726562 240.457031 175.726562 C 241.230469 175.726562 241.996094 175.800781 242.753906 175.953125 C 243.511719 176.101562 244.246094 176.328125 244.960938 176.621094 C 245.675781 176.917969 246.355469 177.28125 246.996094 177.710938 C 247.640625 178.140625 248.234375 178.625 248.78125 179.171875 C 249.324219 179.71875 249.8125 180.3125 250.242188 180.957031 C 250.671875 181.597656 251.035156 182.277344 251.332031 182.992188 C 251.625 183.707031 251.851562 184.441406 252 185.199219 C 252.152344 185.957031 252.226562 186.722656 252.226562 187.496094 C 252.226562 188.269531 252.152344 189.035156 252 189.792969 C 251.851562 190.550781 251.625 191.285156 251.332031 192 C 251.035156 192.714844 250.671875 193.390625 250.242188 194.035156 C 249.8125 194.675781 249.324219 195.269531 248.78125 195.816406 C 248.234375 196.363281 247.640625 196.851562 246.996094 197.28125 C 246.355469 197.710938 245.675781 198.074219 244.960938 198.371094 C 244.246094 198.664062 243.511719 198.886719 242.753906 199.039062 C 241.996094 199.191406 241.230469 199.265625 240.457031 199.265625 Z M 240.457031 199.265625 " fill-opacity="1" fill-rule="nonzero"/></g></svg>