<svg xmlns="http://www.w3.org/2000/svg" xmlns:xlink="http://www.w3.org/1999/xlink" width="500" zoomAndPan="magnify" viewBox="0 0 375 374.999991" height="500" preserveAspectRatio="xMidYMid meet" version="1.0"><defs><clipPath id="6519cb6d8c"><path d="M 44.808594 64.429688 L 337.308594 64.429688 L 337.308594 317 L 44.808594 317 Z M 44.808594 64.429688 " clip-rule="nonzero"/></clipPath><clipPath id="8133ea314b"><path d="M 85.582031 103.570312 L 297.082031 103.570312 L 297.082031 215.320312 L 85.582031 215.320312 Z M 85.582031 103.570312 " clip-rule="nonzero"/></clipPath></defs><rect x="-37.5" width="450" fill="#ffffff" y="-37.499999" height="449.999989" fill-opacity="1"/><rect x="-37.5" width="450" fill="#ffffff" y="-37.499999" height="449.999989" fill-opacity="1"/><g clip-path="url(#6519cb6d8c)"><path fill="#ff5757" d="M 300.464844 64.578125 L 81.835938 64.578125 C 61.421875 64.578125 44.808594 81.191406 44.808594 101.605469 L 44.808594 217.511719 C 44.808594 237.929688 61.421875 254.542969 81.835938 254.542969 L 111.082031 254.542969 L 111.082031 308.648438 C 111.082031 311.710938 112.921875 314.472656 115.753906 315.644531 C 116.6875 316.03125 117.675781 316.21875 118.648438 316.21875 C 120.617188 316.21875 122.554688 315.449219 124.003906 314 L 183.460938 254.542969 L 300.464844 254.542969 C 320.882812 254.542969 337.496094 237.929688 337.496094 217.511719 L 337.496094 101.605469 C 337.496094 81.191406 320.882812 64.578125 300.464844 64.578125 Z M 322.355469 217.511719 C 322.355469 229.585938 312.535156 239.402344 300.464844 239.402344 L 180.328125 239.402344 C 178.320312 239.402344 176.394531 240.203125 174.976562 241.621094 L 126.21875 290.375 L 126.21875 246.972656 C 126.21875 242.792969 122.832031 239.402344 118.648438 239.402344 L 81.835938 239.402344 C 69.765625 239.402344 59.945312 229.585938 59.945312 217.511719 L 59.945312 101.605469 C 59.945312 89.535156 69.765625 79.71875 81.835938 79.71875 L 300.464844 79.71875 C 312.535156 79.71875 322.355469 89.535156 322.355469 101.605469 Z M 322.355469 217.511719 " fill-opacity="1" fill-rule="nonzero"/></g><g clip-path="url(#8133ea314b)"><path stroke-linecap="butt" transform="matrix(2.470614, 0, 0, 2.470614, -364.140147, -162.729189)" fill-opacity="1" fill="#ffffff" fill-rule="nonzero" stroke-linejoin="miter" d="M 176.499438 101.500367 L 303.500055 101.500367 L 303.500055 258.500483 L 176.499438 258.500483 Z M 176.499438 101.500367 " stroke="#dcdcdc" stroke-width="5" stroke-opacity="1" stroke-miterlimit="10"/></g><path stroke-linecap="round" transform="matrix(2.470614, 0, 0, 2.470614, -364.140147, -162.729189)" fill="none" stroke-linejoin="miter" d="M 189.500696 119.833043 L 251.499765 119.833043 " stroke="#000000" stroke-width="5" stroke-opacity="1" stroke-miterlimit="10"/><path stroke-linecap="round" transform="matrix(2.470614, 0, 0, 2.470614, -364.140147, -162.729189)" fill="none" stroke-linejoin="miter" d="M 189.832724 130.832648 L 260.167271 130.832648 " stroke="#000000" stroke-width="5" stroke-opacity="1" stroke-miterlimit="10"/><path stroke-linecap="round" transform="matrix(2.470614, 0, 0, 2.470614, -364.140147, -162.729189)" fill="none" stroke-linejoin="miter" d="M 190.499942 142.167443 L 234.166335 142.167443 " stroke="#000000" stroke-width="5" stroke-opacity="1" stroke-miterlimit="10"/></svg>